<svg width="425" height="60" viewBox="0 0 425 60" fill="none" xmlns="http://www.w3.org/2000/svg">
<path d="M36.9865 17.5511C36.7592 15.2595 35.7839 13.4792 34.0604 12.2102C32.3369 10.9413 29.9979 10.3068 27.0433 10.3068C25.0357 10.3068 23.3407 10.5909 21.9581 11.1591C20.5755 11.7083 19.5149 12.4754 18.7763 13.4602C18.0566 14.4451 17.6967 15.5625 17.6967 16.8125C17.6589 17.8542 17.8767 18.7633 18.3501 19.5398C18.8426 20.3163 19.5149 20.9886 20.3672 21.5568C21.2195 22.1061 22.2043 22.589 23.3217 23.0057C24.4392 23.4034 25.6323 23.7443 26.9013 24.0284L32.1286 25.2784C34.6664 25.8466 36.996 26.6042 39.1172 27.5511C41.2384 28.4981 43.0755 29.6629 44.6286 31.0455C46.1816 32.428 47.3842 34.0568 48.2365 35.9318C49.1077 37.8068 49.5528 39.9564 49.5717 42.3807C49.5528 45.9413 48.6437 49.0284 46.8445 51.642C45.0642 54.2367 42.4884 56.2538 39.1172 57.6932C35.7649 59.1136 31.7214 59.8239 26.9865 59.8239C22.2895 59.8239 18.1986 59.1042 14.7138 57.6648C11.2479 56.2254 8.53954 54.0947 6.58878 51.2727C4.65696 48.4318 3.6437 44.9186 3.54901 40.733H15.4524C15.585 42.6837 16.1437 44.3125 17.1286 45.6193C18.1323 46.9072 19.4676 47.8826 21.1342 48.5455C22.8198 49.1894 24.7232 49.5114 26.8445 49.5114C28.9278 49.5114 30.7365 49.2083 32.2706 48.6023C33.8236 47.9962 35.0263 47.1534 35.8786 46.0739C36.7308 44.9943 37.157 43.7538 37.157 42.3523C37.157 41.0455 36.7687 39.947 35.9922 39.0568C35.2346 38.1667 34.1172 37.4091 32.6399 36.7841C31.1816 36.1591 29.3918 35.5909 27.2706 35.0795L20.9354 33.4886C16.0301 32.2955 12.157 30.4299 9.31605 27.892C6.47514 25.3542 5.06416 21.9356 5.0831 17.6364C5.06416 14.1136 6.00166 11.036 7.8956 8.40341C9.80848 5.77083 12.4316 3.71591 15.7649 2.23864C19.0982 0.761362 22.8861 0.0227251 27.1286 0.0227251C31.4467 0.0227251 35.2157 0.761362 38.4354 2.23864C41.674 3.71591 44.1929 5.77083 45.9922 8.40341C47.7914 11.036 48.7195 14.0852 48.7763 17.5511H36.9865ZM66.5462 59H53.3643L73.4496 0.81818H89.3018L109.359 59H96.1768L81.603 14.1136H81.1484L66.5462 59ZM65.7223 36.1307H96.8587V45.733H65.7223V36.1307ZM107.036 10.9602V0.81818H154.82V10.9602H137.008V59H124.849V10.9602H107.036Z" fill="url(#paint0_linear_220_2135)"/>
<path fill-rule="evenodd" clip-rule="evenodd" d="M203.52 4.32156C198.992 1.57881 193.681 0 188 0C171.431 0 158 13.4315 158 30C158 33.711 158.674 37.2646 159.906 40.5452C160.717 38.3974 161.788 36.4472 163.118 34.6946C166.53 30.1543 171.716 26.7821 178.676 24.5781L190.23 20.8753C194.824 19.3766 198.203 17.5031 200.365 15.255C202.527 13.0069 203.608 9.94332 203.608 6.06422C203.608 5.46898 203.579 4.8881 203.52 4.32156ZM170.427 54.3169C170.386 53.8449 170.365 53.3652 170.365 52.8778C170.365 49.3514 171.311 46.398 173.203 44.0176C175.095 41.5932 178 39.7859 181.919 38.5957L194.892 34.6285C202.02 32.4244 207.257 29.0082 210.601 24.3797C212.368 21.8863 213.663 19.0602 214.487 15.9014C216.729 20.1044 218 24.9038 218 30C218 39.0551 213.988 47.1732 207.645 52.6739L206.649 52.3489C206.555 52.8223 206.454 53.2854 206.346 53.7383C201.274 57.6639 194.91 60 188 60C181.437 60 175.366 57.8923 170.427 54.3169Z" fill="#29A173"/>
<path fill-rule="evenodd" clip-rule="evenodd" d="M203.52 4.32156C198.992 1.57881 193.681 0 188 0C171.431 0 158 13.4315 158 30C158 33.711 158.674 37.2646 159.906 40.5452C160.717 38.3974 161.788 36.4472 163.118 34.6946C166.53 30.1543 171.716 26.7821 178.676 24.5781L190.23 20.8753C194.824 19.3766 198.203 17.5031 200.365 15.255C202.527 13.0069 203.608 9.94332 203.608 6.06422C203.608 5.46898 203.579 4.8881 203.52 4.32156ZM170.427 54.3169C170.386 53.8449 170.365 53.3652 170.365 52.8778C170.365 49.3514 171.311 46.398 173.203 44.0176C175.095 41.5932 178 39.7859 181.919 38.5957L194.892 34.6285C202.02 32.4244 207.257 29.0082 210.601 24.3797C212.368 21.8863 213.663 19.0602 214.487 15.9014C216.729 20.1044 218 24.9038 218 30C218 39.0551 213.988 47.1732 207.645 52.6739L206.649 52.3489C206.555 52.8223 206.454 53.2854 206.346 53.7383C201.274 57.6639 194.91 60 188 60C181.437 60 175.366 57.8923 170.427 54.3169Z" fill="black" fill-opacity="0.2"/>
<path fill-rule="evenodd" clip-rule="evenodd" d="M203.52 4.32156C198.992 1.57881 193.681 0 188 0C171.431 0 158 13.4315 158 30C158 33.711 158.674 37.2646 159.906 40.5452C160.717 38.3974 161.788 36.4472 163.118 34.6946C166.53 30.1543 171.716 26.7821 178.676 24.5781L190.23 20.8753C194.824 19.3766 198.203 17.5031 200.365 15.255C202.527 13.0069 203.608 9.94332 203.608 6.06422C203.608 5.46898 203.579 4.8881 203.52 4.32156ZM170.427 54.3169C170.386 53.8449 170.365 53.3652 170.365 52.8778C170.365 49.3514 171.311 46.398 173.203 44.0176C175.095 41.5932 178 39.7859 181.919 38.5957L194.892 34.6285C202.02 32.4244 207.257 29.0082 210.601 24.3797C212.368 21.8863 213.663 19.0602 214.487 15.9014C216.729 20.1044 218 24.9038 218 30C218 39.0551 213.988 47.1732 207.645 52.6739L206.649 52.3489C206.555 52.8223 206.454 53.2854 206.346 53.7383C201.274 57.6639 194.91 60 188 60C181.437 60 175.366 57.8923 170.427 54.3169Z" fill="black" fill-opacity="0.2"/>
<path d="M233.109 59H219.927L240.012 0.81818H255.864L275.921 59H262.739L248.165 14.1136H247.711L233.109 59ZM232.285 36.1307H263.421V45.733H232.285V36.1307ZM273.599 10.9602V0.81818H321.383V10.9602H303.57V59H291.411V10.9602H273.599ZM357.796 59H344.614L364.7 0.81818H380.552L400.609 59H387.427L372.853 14.1136H372.398L357.796 59ZM356.972 36.1307H388.109V45.733H356.972V36.1307ZM419.913 0.81818V59H407.612V0.81818H419.913Z" fill="url(#paint1_linear_220_2135)"/>
<defs>
<linearGradient id="paint0_linear_220_2135" x1="81.1467" y1="-63.0297" x2="135.263" y2="133.609" gradientUnits="userSpaceOnUse">
<stop stop-color="white"/>
<stop offset="1" stop-color="white" stop-opacity="0"/>
</linearGradient>
<linearGradient id="paint1_linear_220_2135" x1="324.313" y1="-63.0297" x2="366.87" y2="139.563" gradientUnits="userSpaceOnUse">
<stop stop-color="white"/>
<stop offset="1" stop-color="white" stop-opacity="0"/>
</linearGradient>
</defs>
</svg>
