<svg version="1.1" id="Layer_32" xmlns="http://www.w3.org/2000/svg" xmlns:xlink="http://www.w3.org/1999/xlink" x="0px" y="0px" viewBox="0 0 64 64" style="enable-background:new 0 0 64 64;" xml:space="preserve">
<g>
	<path style="fill:#E3E8F6;" d="M48,48H16c-2.209,0-4-1.791-4-4V20c0-2.209,1.791-4,4-4h32c2.209,0,4,1.791,4,4v24
		C52,46.209,50.209,48,48,48z" id="id_101"></path>
	<rect x="16" y="20" style="fill:#F8F7FE;" width="32" height="24" id="id_102"></rect>
	<rect x="19" y="20" style="fill:#FFFFFF;" width="29" height="24" id="id_103"></rect>
	<path style="fill:#E3E8F6;" d="M49,52H15c-1.657,0-3,1.343-3,3v7h40v-7C52,53.343,50.657,52,49,52z" id="id_104"></path>
	<path style="fill: rgb(201, 136, 33);" d="M12.184,54H9c-1.657,0-3,1.343-3,3v5h6v-7C12,54.647,12.072,54.314,12.184,54z" id="id_105"></path>
	<path style="fill: rgb(201, 136, 33);" d="M55,54h-3.184C51.928,54.314,52,54.647,52,55v7h6v-5C58,55.343,56.657,54,55,54z" id="id_106"></path>
	<path style="fill:#F8F7FE;" d="M49,52H18c-1.657,0-3,1.343-3,3v7h37v-7C52,53.343,50.657,52,49,52z" id="id_107"></path>
	<rect x="27" y="48" style="fill: rgb(201, 136, 33);" width="10" height="4" id="id_108"></rect>
	<rect x="29" y="48" style="fill: rgb(201, 136, 33);" width="8" height="4" id="id_109"></rect>
	<path style="fill: rgb(201, 136, 33);" d="M44,12H20c-1.105,0-2,0.895-2,2v2h28v-2C46,12.895,45.105,12,44,12z" id="id_110"></path>
	<rect x="21" y="58" style="fill: rgb(201, 136, 33);" width="22" height="4" id="id_111"></rect>
	<rect x="24" y="58" style="fill: rgb(201, 136, 33);" width="19" height="4" id="id_112"></rect>
	<path style="fill: rgb(201, 136, 33);" d="M9,23c-1.657,0-3,1.343-3,3v12c0,1.657,1.343,3,3,3h3V23H9z" id="id_113"></path>
	<path style="fill: rgb(201, 136, 33);" d="M55,23h-3v18h3c1.657,0,3-1.343,3-3V26C58,24.343,56.657,23,55,23z" id="id_114"></path>
	<circle style="fill: rgb(201, 136, 33);" cx="32" cy="4" r="2" id="id_115"></circle>
	<ellipse style="fill: rgb(201, 136, 33);" cx="32.5" cy="4" rx="1.5" ry="1.929" id="id_116"></ellipse>
	<g>
		<path d="M48,49c2.757,0,5-2.243,5-5v-2h2c2.206,0,4-1.794,4-4V26c0-2.206-1.794-4-4-4h-2v-2c0-2.757-2.243-5-5-5h-1v-1
			c0-1.654-1.346-3-3-3H33V6.816C34.161,6.402,35,5.302,35,4c0-1.654-1.346-3-3-3s-3,1.346-3,3c0,1.302,0.839,2.402,2,2.816V11H20
			c-1.654,0-3,1.346-3,3v1h-1c-2.757,0-5,2.243-5,5v2H9c-2.206,0-4,1.794-4,4v12c0,2.206,1.794,4,4,4h2v2c0,2.757,2.243,5,5,5h10v2
			H15c-1.474,0-2.75,0.81-3.444,2H9c-2.206,0-4,1.794-4,4v5c0,0.553,0.448,1,1,1h52c0.552,0,1-0.447,1-1v-5c0-2.206-1.794-4-4-4
			h-2.556c-0.694-1.19-1.97-2-3.444-2H38v-2H48z M55,24c1.103,0,2,0.897,2,2v12c0,1.103-0.897,2-2,2h-2V24H55z M32,3
			c0.551,0,1,0.448,1,1s-0.449,1-1,1s-1-0.448-1-1S31.449,3,32,3z M9,40c-1.103,0-2-0.897-2-2V26c0-1.103,0.897-2,2-2h2v16H9z
			 M19,14c0-0.552,0.449-1,1-1h24c0.551,0,1,0.448,1,1v1H19V14z M13,44V20c0-1.654,1.346-3,3-3h32c1.654,0,3,1.346,3,3v24
			c0,1.654-1.346,3-3,3H16C14.346,47,13,45.654,13,44z M9,55h2v2H7C7,55.897,7.897,55,9,55z M7,59h4v2H7V59z M42,61H22v-2h20V61z
			 M53,61v-2h4v2H53z M55,55c1.103,0,2,0.897,2,2h-4v-2H55z M51,55v6h-7v-3c0-0.553-0.448-1-1-1H21c-0.552,0-1,0.447-1,1v3h-7v-6
			c0-1.103,0.897-2,2-2h34C50.103,53,51,53.897,51,55z M36,51h-8v-2h8V51z" id="id_117" style="fill: rgb(0, 0, 0);"></path>
		<path d="M49,44V20c0-0.553-0.448-1-1-1H16c-0.552,0-1,0.447-1,1v24c0,0.553,0.448,1,1,1h32C48.552,45,49,44.553,49,44z M47,43H17
			V21h30V43z" id="id_118" style="fill: rgb(0, 0, 0);"></path>
		<path d="M23.832,32.555l0.866-1.299l2.354,7.061C27.187,38.725,27.569,39,28,39s0.812-0.275,0.949-0.684L30.721,33H33
			c0.379,0,0.725-0.214,0.895-0.553l0.872-1.745l2.275,7.585c0.125,0.418,0.507,0.706,0.943,0.713c0.005,0,0.01,0,0.015,0
			c0.43,0,0.812-0.275,0.949-0.684L40.721,33H45v-2h-5c-0.431,0-0.813,0.275-0.949,0.684l-1.001,3.004l-2.092-6.975
			c-0.118-0.393-0.463-0.674-0.872-0.709c-0.401-0.041-0.797,0.182-0.98,0.549L32.382,31H30c-0.431,0-0.813,0.275-0.949,0.684
			L28,34.838l-2.051-6.154c-0.121-0.362-0.438-0.624-0.816-0.675c-0.381-0.049-0.753,0.119-0.965,0.437L22.465,31H19v2h4
			C23.334,33,23.646,32.833,23.832,32.555z" id="id_119" style="fill: rgb(201, 136, 33);"></path>
	</g>
</g>
</svg>