<svg version="1.1" id="Layer_1" xmlns="http://www.w3.org/2000/svg" xmlns:xlink="http://www.w3.org/1999/xlink" x="0px" y="0px" viewBox="0 0 123.8229 243.7659" enable-background="new 0 0 123.8229 243.7659" xml:space="preserve">
<g>
	<path d="M82.1927,142.3063c-2.9355,0-5.7383-1.2549-7.6895-3.4443c-1.8311-2.0518-2.7529-4.6953-2.5967-7.4424
		c0.125-2.1837,0.929-4.2183,2.2805-5.8834L47.174,71.334c1.3308-0.3796,2.6492-0.8499,3.9481-1.4153l26.2195,52.6099
		l11.4763-10.2364l5.7972-28.6348c1.6431,2.0251,3.375,4.3882,5.1031,6.9321c2.073,3.0513,4.1404,6.3624,6.0408,9.6739
		l-28.8945,25.7734c-3.2969,2.9404-3.5859,7.998-0.6445,11.2949c1.5801,1.7725,3.7715,2.6748,5.9727,2.6748
		c1.8945,0,3.7969-0.6689,5.3223-2.0303l33.6328-30c2.7236-2.4287,3.458-6.3945,1.7842-9.6377
		c-1.6326-3.1649-5.0708-9.5359-9.4902-16.1232c-5.6868-8.4764-12.9987-17.3109-20.1797-20.1327
		c-0.3489-0.1368-0.7021-0.238-1.0565-0.3234c-0.3197-0.11-0.6461-0.2075-0.9865-0.2764l-25.1121-5.084
		c0.9155-1.6371,1.6909-3.367,2.3154-5.1762c2.2441,1.3071,4.7534,2.2466,7.4617,2.7184
		c12.2433,2.133,23.895-6.0621,26.0278-18.3043c0.46-2.6398,0.4374-5.2515,0-7.7469c7.7349-4.7233,10.4359-18.1639,10.4359-18.1639
		s-4.5734,8.1331-13.7201,9.8196c-3.2874-5.0731-8.5942-8.8172-15.02-9.9367c-6.4249-1.1193-12.6854,0.6095-17.4949,4.2719
		C58.0755,9.2005,56.522,0,56.522,0s-1.2624,8.5467,1.057,15.6039c-2.698-2.0323-5.731-3.6436-9.0275-4.7469
		c-8.0195-2.6855-16.6074-2.0869-24.1768,1.6865C17.2641,16.0873,12.0769,21.9662,9.2596,28.79
		c-3.8431-0.1395-7.3395,2.514-8.123,6.4098C-3.6525,59.022,8.2107,92.4068,8.7176,93.816
		c0.8809,2.4463,2.8945,4.3115,5.4004,5.0029c0.7012,0.1934,1.416,0.2881,2.127,0.2881c1.8281,0,3.627-0.6279,5.0742-1.8154
		L39.7226,82.192l-9.0493,44.6987c-0.076,0.3754-0.1137,0.7489-0.134,1.1204c-0.1255,0.7066-0.2025,1.4301-0.2025,2.1729v101.2188
		c0,6.8302,5.5371,12.3633,12.3633,12.3633c6.8281,0,12.3652-5.5331,12.3652-12.3633v-91.6885l4.6348,0.9384v90.7502
		c0,6.8302,5.537,12.3633,12.3633,12.3633c6.8281,0,12.3651-5.5331,12.3651-12.3633v-85.3169l-1.8914-3.7952
		C82.4222,142.2944,82.3082,142.3063,82.1927,142.3063z M47.5994,13.7017c7.2607,2.4307,13.1396,7.543,16.5547,14.3955
		c3.416,6.8535,3.958,14.626,1.5273,21.8867c-2.4307,7.2607-7.5439,13.1406-14.3965,16.5557
		c-14.1484,7.0518-31.3906,1.2764-38.4414-12.8691C5.7937,39.524,11.5672,22.2789,25.7127,15.2291
		c4.0322-2.0098,8.3828-3.0244,12.7598-3.0244C41.535,12.2047,44.6111,12.7007,47.5994,13.7017z M93.0723,29.6077
		c0.49,2.3666-1.0312,4.6825-3.3979,5.1725s-4.6826-1.0313-5.1726-3.3979C84.0118,29.0156,92.5822,27.241,93.0723,29.6077z
		 M86.8758,43.2897l7.3308-2.0218l-7.3051,5.5156l-10.0507,1.6113l-6.8992-3.8044c0.1597-1.3307,0.2317-2.6652,0.2207-3.9973
		l7.5366,2.8759L86.8758,43.2897z M75.4031,29.7971c-1.2616,2.0615-3.9554,2.7101-6.017,1.4485
		c-0.4078-0.2495-0.743-0.5669-1.0365-0.9125c-0.3096-0.8705-0.657-1.7314-1.045-2.5809c-0.0477-0.8569,0.1512-1.736,0.6331-2.5235
		C69.1993,23.1672,76.6646,27.7355,75.4031,29.7971z M20.4344,77.3218c-0.9728-3.6835-1.9885-8.0386-2.808-12.65
		c3.1527,2.7591,6.7957,4.8465,10.7028,6.1725L20.4344,77.3218z" id="id_101" style="fill: rgb(201, 136, 33);"></path>
	<path d="M86.6836,141.2737l4.0978,8.2221l1.139,2.2854l3.8445-1.916l-5.5771-11.1905l-1.1416,1.0184
		C88.3293,140.3325,87.5332,140.8615,86.6836,141.2737z" id="id_102" style="fill: rgb(201, 136, 33);"></path>
	<ellipse transform="matrix(0.895 -0.446 0.446 0.895 -15.6802 16.5991)" cx="27.4203" cy="41.608" rx="3.4128" ry="6.9358" id="id_103" style="fill: rgb(201, 136, 33);"></ellipse>
	<path d="M48.8411,38.6818c1.687-0.8408,1.6694-4.3016-0.0392-7.7299s-4.4612-5.526-6.1483-4.6852
		c-1.687,0.8408-1.6694,4.3015,0.0392,7.7299C44.4015,37.4249,47.1542,39.5225,48.8411,38.6818z" id="id_104" style="fill: rgb(201, 136, 33);"></path>
	<path d="M28.3934,57.772c2.248,0.8262,4.6563,1.2344,7.1133,1.2344c3.5898,0,7.2842-0.8721,10.7324-2.5908
		c5.8096-2.8945,10.1211-7.791,11.8281-13.4326l-2.8711-0.8691c-1.4697,4.8545-5.2217,9.0889-10.2949,11.6162
		c-5.0742,2.5273-10.7129,2.9736-15.4727,1.2256L28.3934,57.772z" id="id_105" style="fill: rgb(201, 136, 33);"></path>
</g>
</svg>