<svg width="113" height="25" viewBox="0 0 113 25" fill="none" xmlns="http://www.w3.org/2000/svg">
<path d="M36.3984 8.12355V10.5099H28.8728V8.12355H36.3984ZM30.7308 4.98718H33.816V17.277C33.816 17.6917 33.8785 18.0099 34.0035 18.2315C34.1342 18.4474 34.3046 18.5951 34.5148 18.6747C34.7251 18.7542 34.958 18.794 35.2137 18.794C35.4069 18.794 35.583 18.7798 35.7421 18.7514C35.9069 18.723 36.0319 18.6974 36.1171 18.6747L36.637 21.0866C36.4722 21.1434 36.2364 21.2059 35.9296 21.2741C35.6285 21.3423 35.2592 21.3821 34.8217 21.3934C34.0489 21.4162 33.3529 21.2997 32.7336 21.044C32.1143 20.7826 31.6228 20.3792 31.2592 19.8338C30.9012 19.2883 30.7251 18.6065 30.7308 17.7883V4.98718Z" fill="white"/>
<path d="M19.8472 21.4786C19.0177 21.4786 18.2705 21.3308 17.6058 21.0354C16.9467 20.7343 16.4239 20.2911 16.0376 19.7058C15.6569 19.1206 15.4666 18.399 15.4666 17.5411C15.4666 16.8024 15.6029 16.1916 15.8756 15.7087C16.1484 15.2257 16.5205 14.8394 16.9921 14.5496C17.4637 14.2598 17.995 14.0411 18.5859 13.8933C19.1825 13.7399 19.7989 13.6291 20.4353 13.561C21.2024 13.4814 21.8245 13.4104 22.3018 13.3479C22.7791 13.2797 23.1256 13.1774 23.3416 13.0411C23.5631 12.899 23.6739 12.6803 23.6739 12.3848V12.3337C23.6739 11.6916 23.4836 11.1945 23.1029 10.8422C22.7222 10.4899 22.1739 10.3138 21.458 10.3138C20.7023 10.3138 20.1029 10.4786 19.6597 10.8081C19.2222 11.1377 18.9268 11.5269 18.7734 11.9757L15.8927 11.5666C16.12 10.7712 16.495 10.1064 17.0177 9.57232C17.5404 9.03255 18.1796 8.62914 18.9353 8.36209C19.691 8.08937 20.5262 7.953 21.441 7.953C22.0717 7.953 22.6995 8.02687 23.3245 8.17459C23.9495 8.32232 24.5205 8.56664 25.0376 8.90755C25.5546 9.24278 25.9694 9.70016 26.2819 10.2797C26.6001 10.8593 26.7592 11.5837 26.7592 12.453V21.2144H23.7933V19.4161H23.691C23.5035 19.7797 23.2393 20.1206 22.8984 20.4388C22.5631 20.7513 22.1398 21.0041 21.6285 21.1973C21.1228 21.3848 20.5291 21.4786 19.8472 21.4786ZM20.6484 19.2115C21.2677 19.2115 21.8046 19.0894 22.2592 18.845C22.7137 18.595 23.0631 18.2655 23.3075 17.8564C23.5575 17.4473 23.6825 17.0013 23.6825 16.5183V14.9757C23.5859 15.0553 23.4211 15.1291 23.1881 15.1973C22.9609 15.2655 22.7052 15.3252 22.4211 15.3763C22.137 15.4274 21.8558 15.4729 21.5773 15.5127C21.2989 15.5524 21.0575 15.5865 20.8529 15.6149C20.3927 15.6774 19.9808 15.7797 19.6171 15.9218C19.2535 16.0638 18.9666 16.2627 18.7563 16.5183C18.5461 16.7683 18.441 17.0922 18.441 17.4899C18.441 18.0581 18.6484 18.4871 19.0631 18.7769C19.4779 19.0666 20.0063 19.2115 20.6484 19.2115Z" fill="white"/>
<path d="M10.1165 8.55817C10.0369 7.81385 9.7017 7.23431 9.1108 6.81954C8.52557 6.40476 7.7642 6.19738 6.8267 6.19738C6.16761 6.19738 5.60227 6.29681 5.13068 6.49567C4.65909 6.69454 4.2983 6.96442 4.0483 7.30533C3.7983 7.64624 3.67045 8.03545 3.66477 8.47295C3.66477 8.83658 3.74716 9.15192 3.91193 9.41897C4.08239 9.68601 4.3125 9.91329 4.60227 10.1008C4.89205 10.2826 5.21307 10.436 5.56534 10.561C5.91761 10.686 6.27273 10.7911 6.63068 10.8764L8.26705 11.2854C8.92614 11.4389 9.55966 11.6462 10.1676 11.9076C10.7812 12.169 11.3295 12.4985 11.8125 12.8962C12.3011 13.294 12.6875 13.7741 12.9716 14.3366C13.2557 14.8991 13.3977 15.5582 13.3977 16.3139C13.3977 17.3366 13.1364 18.2371 12.6136 19.0156C12.0909 19.7883 11.3352 20.3934 10.3466 20.8309C9.36364 21.2627 8.1733 21.4786 6.77557 21.4786C5.41761 21.4786 4.23864 21.2684 3.23864 20.8479C2.24432 20.4275 1.46591 19.8139 0.903409 19.007C0.346591 18.2002 0.0454546 17.2173 0 16.0582H3.1108C3.15625 16.6661 3.34375 17.1718 3.6733 17.5752C4.00284 17.9786 4.43182 18.2798 4.96023 18.4786C5.49432 18.6775 6.09091 18.7769 6.75 18.7769C7.4375 18.7769 8.03977 18.6746 8.55682 18.4701C9.07955 18.2599 9.48864 17.9701 9.78409 17.6008C10.0795 17.2258 10.2301 16.7883 10.2358 16.2883C10.2301 15.8337 10.0966 15.4587 9.83523 15.1633C9.57386 14.8621 9.20739 14.6121 8.7358 14.4133C8.26989 14.2087 7.72443 14.0269 7.09943 13.8678L5.11364 13.3565C3.67614 12.9872 2.53977 12.4275 1.70455 11.6775C0.875 10.9218 0.460227 9.91897 0.460227 8.66897C0.460227 7.64056 0.738636 6.73999 1.29545 5.96726C1.85795 5.19454 2.62216 4.5951 3.58807 4.16897C4.55398 3.73715 5.64773 3.52124 6.86932 3.52124C8.10796 3.52124 9.19318 3.73715 10.125 4.16897C11.0625 4.5951 11.7983 5.18885 12.3324 5.95022C12.8665 6.7059 13.142 7.57522 13.1591 8.55817H10.1165Z" fill="white"/>
<mask id="path-4-inside-1_394_5526" fill="white">
<path fill-rule="evenodd" clip-rule="evenodd" d="M60.6088 1.8037C58.721 0.659006 56.5059 0 54.137 0C47.2334 0 41.637 5.59644 41.637 12.5C41.637 14.1816 41.969 15.7857 42.5712 17.2502C42.8894 16.4539 43.2888 15.7227 43.7696 15.0567C45.1913 13.0676 47.3521 11.5903 50.2518 10.6247L55.066 9.00252C56.9804 8.34592 58.3881 7.52519 59.289 6.5403C60.1899 5.55541 60.6403 4.21326 60.6403 2.51385C60.6403 2.27171 60.6298 2.035 60.6088 1.8037ZM46.7982 22.62C46.8615 21.2516 47.2526 20.092 47.9714 19.1411C48.7597 18.0789 49.9703 17.2871 51.6032 16.7657L57.0086 15.0277C59.9787 14.0621 62.1606 12.5655 63.5542 10.5378C64.3143 9.40982 64.865 8.12648 65.2063 6.68775C66.1199 8.42412 66.637 10.4017 66.637 12.5C66.637 19.4036 61.0405 25 54.137 25C51.3949 25 48.859 24.1171 46.7982 22.62Z"/>
</mask>
<path fill-rule="evenodd" clip-rule="evenodd" d="M60.6088 1.8037C58.721 0.659006 56.5059 0 54.137 0C47.2334 0 41.637 5.59644 41.637 12.5C41.637 14.1816 41.969 15.7857 42.5712 17.2502C42.8894 16.4539 43.2888 15.7227 43.7696 15.0567C45.1913 13.0676 47.3521 11.5903 50.2518 10.6247L55.066 9.00252C56.9804 8.34592 58.3881 7.52519 59.289 6.5403C60.1899 5.55541 60.6403 4.21326 60.6403 2.51385C60.6403 2.27171 60.6298 2.035 60.6088 1.8037ZM46.7982 22.62C46.8615 21.2516 47.2526 20.092 47.9714 19.1411C48.7597 18.0789 49.9703 17.2871 51.6032 16.7657L57.0086 15.0277C59.9787 14.0621 62.1606 12.5655 63.5542 10.5378C64.3143 9.40982 64.865 8.12648 65.2063 6.68775C66.1199 8.42412 66.637 10.4017 66.637 12.5C66.637 19.4036 61.0405 25 54.137 25C51.3949 25 48.859 24.1171 46.7982 22.62Z" fill="#29A173"/>
<path fill-rule="evenodd" clip-rule="evenodd" d="M60.6088 1.8037C58.721 0.659006 56.5059 0 54.137 0C47.2334 0 41.637 5.59644 41.637 12.5C41.637 14.1816 41.969 15.7857 42.5712 17.2502C42.8894 16.4539 43.2888 15.7227 43.7696 15.0567C45.1913 13.0676 47.3521 11.5903 50.2518 10.6247L55.066 9.00252C56.9804 8.34592 58.3881 7.52519 59.289 6.5403C60.1899 5.55541 60.6403 4.21326 60.6403 2.51385C60.6403 2.27171 60.6298 2.035 60.6088 1.8037ZM46.7982 22.62C46.8615 21.2516 47.2526 20.092 47.9714 19.1411C48.7597 18.0789 49.9703 17.2871 51.6032 16.7657L57.0086 15.0277C59.9787 14.0621 62.1606 12.5655 63.5542 10.5378C64.3143 9.40982 64.865 8.12648 65.2063 6.68775C66.1199 8.42412 66.637 10.4017 66.637 12.5C66.637 19.4036 61.0405 25 54.137 25C51.3949 25 48.859 24.1171 46.7982 22.62Z" fill="black" fill-opacity="0.2"/>
<path fill-rule="evenodd" clip-rule="evenodd" d="M60.6088 1.8037C58.721 0.659006 56.5059 0 54.137 0C47.2334 0 41.637 5.59644 41.637 12.5C41.637 14.1816 41.969 15.7857 42.5712 17.2502C42.8894 16.4539 43.2888 15.7227 43.7696 15.0567C45.1913 13.0676 47.3521 11.5903 50.2518 10.6247L55.066 9.00252C56.9804 8.34592 58.3881 7.52519 59.289 6.5403C60.1899 5.55541 60.6403 4.21326 60.6403 2.51385C60.6403 2.27171 60.6298 2.035 60.6088 1.8037ZM46.7982 22.62C46.8615 21.2516 47.2526 20.092 47.9714 19.1411C48.7597 18.0789 49.9703 17.2871 51.6032 16.7657L57.0086 15.0277C59.9787 14.0621 62.1606 12.5655 63.5542 10.5378C64.3143 9.40982 64.865 8.12648 65.2063 6.68775C66.1199 8.42412 66.637 10.4017 66.637 12.5C66.637 19.4036 61.0405 25 54.137 25C51.3949 25 48.859 24.1171 46.7982 22.62Z" fill="black" fill-opacity="0.2"/>
<path d="M60.6088 1.8037L61.6047 1.71328L61.5591 1.21042L61.1273 0.948614L60.6088 1.8037ZM42.5712 17.2502L41.6463 17.6305L42.5844 19.9122L43.4998 17.6213L42.5712 17.2502ZM43.7696 15.0567L44.5804 15.6419L44.5831 15.6382L43.7696 15.0567ZM50.2518 10.6247L50.5678 11.5735L50.5711 11.5723L50.2518 10.6247ZM55.066 9.00252L55.3853 9.95018L55.3904 9.94843L55.066 9.00252ZM59.289 6.5403L58.5511 5.86535L58.5511 5.86535L59.289 6.5403ZM46.7982 22.62L45.7992 22.5737L45.7743 23.1122L46.2105 23.4291L46.7982 22.62ZM47.9714 19.1411L48.7692 19.7441L48.7744 19.737L47.9714 19.1411ZM51.6032 16.7657L51.9074 17.7184L51.9093 17.7177L51.6032 16.7657ZM57.0086 15.0277L57.3147 15.9797L57.3178 15.9787L57.0086 15.0277ZM63.5542 10.5378L64.3784 11.1042L64.3835 11.0966L63.5542 10.5378ZM65.2063 6.68775L66.0913 6.22211L64.8491 3.86118L64.2333 6.45694L65.2063 6.68775ZM54.137 1C56.318 1 58.3544 1.60621 60.0904 2.65879L61.1273 0.948614C59.0876 -0.288194 56.6939 -1 54.137 -1V1ZM42.637 12.5C42.637 6.14873 47.7857 1 54.137 1V-1C46.6811 -1 40.637 5.04416 40.637 12.5H42.637ZM43.4961 16.87C42.9427 15.524 42.637 14.0489 42.637 12.5H40.637C40.637 14.3143 40.9954 16.0474 41.6463 17.6305L43.4961 16.87ZM42.9587 14.4714C42.428 15.2066 41.9898 16.0103 41.6426 16.8792L43.4998 17.6213C43.789 16.8976 44.1496 16.2388 44.5804 15.6419L42.9587 14.4714ZM49.9359 9.6759C46.8863 10.6914 44.5285 12.2752 42.956 14.4752L44.5831 15.6382C45.8541 13.8599 47.8178 12.4892 50.5678 11.5735L49.9359 9.6759ZM54.7467 8.05487L49.9325 9.67703L50.5711 11.5723L55.3853 9.95017L54.7467 8.05487ZM58.5511 5.86535C57.8068 6.67912 56.5727 7.42859 54.7416 8.0566L55.3904 9.94843C57.3882 9.26326 58.9694 8.37126 60.0269 7.21525L58.5511 5.86535ZM59.6403 2.51385C59.6403 4.03413 59.2411 5.11106 58.5511 5.86535L60.0269 7.21525C61.1387 5.99977 61.6403 4.3924 61.6403 2.51385H59.6403ZM59.6129 1.89412C59.6311 2.09411 59.6403 2.30062 59.6403 2.51385H61.6403C61.6403 2.24281 61.6286 1.97589 61.6047 1.71328L59.6129 1.89412ZM47.7971 22.6663C47.8526 21.4685 48.1895 20.5108 48.7692 19.7441L47.1737 18.538C46.3157 19.6731 45.8705 21.0347 45.7992 22.5737L47.7971 22.6663ZM48.7744 19.737C49.4055 18.8867 50.4151 18.1949 51.9074 17.7183L51.299 15.8131C49.5255 16.3794 48.1139 17.2711 47.1684 18.5451L48.7744 19.737ZM51.9093 17.7177L57.3147 15.9797L56.7025 14.0757L51.2971 15.8137L51.9093 17.7177ZM57.3178 15.9787C60.4401 14.9637 62.8299 13.3572 64.3783 11.1042L62.7301 9.97138C61.4913 11.7738 59.5174 13.1606 56.6994 14.0767L57.3178 15.9787ZM64.3835 11.0966C65.2165 9.86051 65.8127 8.46417 66.1793 6.91856L64.2333 6.45694C63.9174 7.78879 63.4122 8.95913 62.7249 9.97893L64.3835 11.0966ZM64.3214 7.15339C65.1612 8.74962 65.637 10.5678 65.637 12.5H67.637C67.637 10.2356 67.0786 8.09861 66.0913 6.22211L64.3214 7.15339ZM65.637 12.5C65.637 18.8513 60.4882 24 54.137 24V26C61.5928 26 67.637 19.9558 67.637 12.5H65.637ZM54.137 24C51.613 24 49.2817 23.1881 47.3859 21.8109L46.2105 23.4291C48.4364 25.0461 51.1768 26 54.137 26V24Z" fill="#193F2D" mask="url(#path-4-inside-1_394_5526)"/>
<path d="M112.406 8.50391V21.1836H109.301V8.50391H112.406ZM109.09 5.1875C109.09 4.72656 109.246 4.34375 109.559 4.03906C109.879 3.73438 110.309 3.58203 110.848 3.58203C111.387 3.58203 111.813 3.73438 112.125 4.03906C112.446 4.34375 112.606 4.72656 112.606 5.1875C112.606 5.64062 112.446 6.01953 112.125 6.32422C111.813 6.62891 111.387 6.78125 110.848 6.78125C110.309 6.78125 109.879 6.62891 109.559 6.32422C109.246 6.01953 109.09 5.64062 109.09 5.1875Z" fill="white"/>
<path d="M100.114 6.71094L95.2502 21.1836H91.8401L98.2151 4.12109H100.395L100.114 6.71094ZM104.18 21.1836L99.2932 6.71094L99.0002 4.12109H101.192L107.602 21.1836H104.18ZM103.957 14.8438V17.3867H94.8049V14.8438H103.957Z" fill="white"/>
<path d="M91.0315 8.50391V10.7305H83.7659V8.50391H91.0315ZM85.7112 5.38672H88.8167V17.5273C88.8167 17.9023 88.8674 18.1914 88.969 18.3945C89.0706 18.5977 89.2229 18.7344 89.426 18.8047C89.6292 18.875 89.8713 18.9102 90.1526 18.9102C90.3557 18.9102 90.5432 18.8984 90.7151 18.875C90.887 18.8516 91.0315 18.8281 91.1487 18.8047L91.1604 21.125C90.9026 21.2109 90.6096 21.2812 90.2815 21.3359C89.9612 21.3906 89.5979 21.418 89.1917 21.418C88.4963 21.418 87.887 21.3008 87.3635 21.0664C86.8401 20.8242 86.4338 20.4375 86.1448 19.9062C85.8557 19.3672 85.7112 18.6562 85.7112 17.7734V5.38672Z" fill="white"/>
<path d="M79.1252 18.4883V12.6406C79.1252 12.2109 79.051 11.8398 78.9026 11.5273C78.7542 11.2148 78.5276 10.9727 78.2229 10.8008C77.9182 10.6289 77.5315 10.543 77.0627 10.543C76.6487 10.543 76.2854 10.6133 75.9729 10.7539C75.6682 10.8945 75.4338 11.0938 75.2698 11.3516C75.1057 11.6016 75.0237 11.8906 75.0237 12.2188H71.9182C71.9182 11.6953 72.0432 11.1992 72.2932 10.7305C72.5432 10.2539 72.8987 9.83203 73.3596 9.46484C73.8284 9.08984 74.387 8.79688 75.0354 8.58594C75.6917 8.375 76.426 8.26953 77.2385 8.26953C78.1995 8.26953 79.0549 8.43359 79.8049 8.76172C80.5627 9.08203 81.1565 9.56641 81.5862 10.2148C82.0237 10.8633 82.2424 11.6797 82.2424 12.6641V18.1953C82.2424 18.8281 82.2815 19.3711 82.3596 19.8242C82.4456 20.2695 82.5706 20.6562 82.7346 20.9844V21.1836H79.5823C79.4338 20.8633 79.3206 20.457 79.2424 19.9648C79.1643 19.4648 79.1252 18.9727 79.1252 18.4883ZM79.5588 13.4609L79.5823 15.3008H77.6252C77.1409 15.3008 76.7151 15.3516 76.3479 15.4531C75.9807 15.5469 75.6799 15.6875 75.4456 15.875C75.2112 16.0547 75.0354 16.2734 74.9182 16.5312C74.801 16.7812 74.7424 17.0664 74.7424 17.3867C74.7424 17.6992 74.8127 17.9805 74.9534 18.2305C75.1018 18.4805 75.3127 18.6797 75.5862 18.8281C75.8674 18.9688 76.1956 19.0391 76.5706 19.0391C77.1174 19.0391 77.594 18.9297 78.0002 18.7109C78.4065 18.4844 78.7229 18.2109 78.9495 17.8906C79.176 17.5703 79.2971 17.2656 79.3127 16.9766L80.2034 18.3125C80.094 18.6328 79.9299 18.9727 79.7112 19.332C79.4924 19.6914 79.2112 20.0273 78.8674 20.3398C78.5237 20.6523 78.1096 20.9102 77.6252 21.1133C77.1409 21.3164 76.5784 21.418 75.9377 21.418C75.1174 21.418 74.3831 21.2539 73.7346 20.9258C73.0862 20.5977 72.5745 20.1484 72.1995 19.5781C71.8245 19.0078 71.637 18.3594 71.637 17.6328C71.637 16.9609 71.762 16.3672 72.012 15.8516C72.262 15.3359 72.6331 14.9023 73.1252 14.5508C73.6174 14.1914 74.2268 13.9219 74.9534 13.7422C75.6877 13.5547 76.5276 13.4609 77.4729 13.4609H79.5588Z" fill="white"/>
</svg>
