<svg width="201" height="459" viewBox="0 0 201 459" fill="none" xmlns="http://www.w3.org/2000/svg">
<path d="M199.751 106.26L3.39925 106.136L91.0143 357.105L119.711 357.277L199.751 106.26Z" fill="#FFDE00" fill-opacity="0.4"/>
<path d="M101.739 0.592736C156.521 0.919868 200.765 40.6225 200.475 89.1949C200.185 137.767 155.47 176.939 100.688 176.612C45.9057 176.285 1.66225 136.582 1.9523 88.0095C2.24235 39.437 46.9568 0.265605 101.739 0.592736Z" fill="#FFDE00"/>
<g opacity="0.5">
<path d="M118.4 359.733L117.433 451.391C117.289 455.286 114.098 458.39 110.182 458.348L96.9765 458.209C93.06 458.168 89.9148 454.997 89.8739 451.1L89.8534 451.1L90.8207 359.442L118.4 359.733Z" fill="black"/>
<path d="M118.421 357.705L118.394 360.26C118.374 362.156 116.822 363.676 114.926 363.656L94.2112 363.437C92.3144 363.417 90.7948 361.865 90.8148 359.969L90.8418 357.414L118.421 357.705Z" fill="black"/>
<path d="M124.182 359.789L85.3906 359.38C83.2273 359.357 81.2868 358.047 80.463 356.049L69.7708 330.164L140.077 330.906L129.202 356.506C128.347 358.515 126.366 359.812 124.182 359.789Z" fill="black"/>
<path d="M137.335 322.541L72.6885 321.859C71.126 321.842 69.8455 323.094 69.829 324.657L69.7708 330.166L140.075 330.908L140.133 325.399C140.15 323.836 138.898 322.558 137.335 322.541Z" fill="black"/>
<path d="M78.5689 346.237C78.1824 346.335 77.7763 346.14 77.6651 345.801L75.6634 339.789L73.6617 333.778C73.5484 333.44 73.7716 333.084 74.1581 332.987C74.5447 332.889 74.9487 333.084 75.062 333.424L77.0637 339.435L79.0654 345.444C79.1766 345.784 78.9555 346.138 78.5689 346.237Z" fill="black"/>
<path d="M84.2162 346.3C83.8298 346.376 83.4465 346.163 83.3578 345.824L81.8032 339.813L80.2466 333.804C80.1599 333.465 80.3993 333.129 80.7877 333.053C81.174 332.977 81.5573 333.193 81.646 333.532L83.2007 339.537L84.7573 345.549C84.846 345.889 84.6025 346.224 84.2162 346.3Z" fill="black"/>
<path d="M89.8611 346.364C89.475 346.417 89.1083 346.186 89.0463 345.847L87.9367 339.839L86.8291 333.833C86.767 333.494 87.0308 333.173 87.417 333.119C87.8051 333.066 88.1677 333.299 88.2318 333.636L89.3373 339.644L90.449 345.65C90.5111 345.99 90.2472 346.311 89.8611 346.364Z" fill="black"/>
<path d="M95.5086 346.411C95.1227 346.444 94.7788 346.194 94.7413 345.856L94.0787 339.85L93.4162 333.843C93.3787 333.504 93.6608 333.203 94.0487 333.173C94.4346 333.14 94.7785 333.39 94.816 333.728L95.4786 339.734L96.1412 345.739C96.1786 346.078 95.8617 346.571 95.5086 346.411Z" fill="black"/>
<path d="M101.153 346.487C100.768 346.498 100.444 346.232 100.434 345.893L100.214 339.888L100.001 333.884C99.9877 333.545 100.292 333.261 100.678 333.251C101.066 333.243 101.389 333.511 101.402 333.849L101.617 339.854L101.833 345.859C101.845 346.197 101.539 346.477 101.153 346.487Z" fill="black"/>
<path d="M106.801 346.549C106.415 346.537 106.109 346.253 106.122 345.914L106.352 339.912L106.583 333.908C106.595 333.568 106.922 333.307 107.307 333.319C107.695 333.331 107.997 333.615 107.984 333.953L107.754 339.958L107.523 345.96C107.509 346.3 107.186 346.561 106.801 346.549Z" fill="black"/>
<path d="M112.448 346.613C112.062 346.578 111.776 346.277 111.815 345.939L112.491 339.936L113.17 333.932C113.208 333.594 113.549 333.348 113.937 333.383C114.324 333.417 114.608 333.72 114.569 334.058L113.893 340.061L113.214 346.065C113.176 346.403 112.835 346.648 112.448 346.613Z" fill="black"/>
<path d="M118.091 346.676C117.706 346.621 117.443 346.3 117.506 345.963L118.629 339.962L119.751 333.961C119.814 333.623 120.181 333.393 120.568 333.45C120.955 333.506 121.216 333.826 121.153 334.166L120.03 340.165L118.908 346.166C118.845 346.506 118.478 346.734 118.091 346.676Z" fill="black"/>
<path d="M123.738 346.74C123.351 346.662 123.109 346.323 123.198 345.986L124.767 339.987L126.337 333.987C126.427 333.65 126.811 333.438 127.198 333.516C127.584 333.596 127.825 333.933 127.737 334.271L126.167 340.271L124.6 346.269C124.51 346.609 124.123 346.818 123.738 346.74Z" fill="black"/>
<path d="M129.383 346.804C128.996 346.703 128.774 346.346 128.889 346.009L130.904 340.011L132.922 334.014C133.034 333.676 133.438 333.482 133.825 333.584C134.211 333.685 134.431 334.04 134.319 334.379L132.303 340.377L130.29 346.372C130.177 346.712 129.769 346.904 129.383 346.804Z" fill="black"/>
<path d="M107.927 403.836L100.36 403.756L100.535 387.25L108.101 387.329L107.927 403.836Z" fill="black"/>
<path d="M107.927 403.836L100.361 403.756L100.507 389.895L108.073 389.975L107.927 403.836Z" fill="black"/>
<path d="M107.927 403.836L100.361 403.756L100.438 396.383L108.005 396.463L107.927 403.836Z" fill="black"/>
<path d="M117.518 443.291L117.433 451.391C117.289 455.286 114.098 458.39 110.181 458.348L96.9761 458.209C93.0596 458.168 89.9144 454.997 89.8735 451.1L89.853 451.1L89.9385 443L117.518 443.291Z" fill="black"/>
<path d="M117.456 449.164L89.8767 448.873L89.8931 447.315L117.473 447.606L117.456 449.164Z" fill="black"/>
</g>
<path d="M119.819 353.045L119.271 444.707C119.145 448.602 115.969 451.721 112.052 451.697L98.8462 451.618C94.9296 451.595 91.7699 448.439 91.7111 444.542L91.6906 444.542L92.238 352.88L119.819 353.045Z" fill="#5F5F5F"/>
<path d="M119.831 351.017L119.816 353.572C119.804 355.469 118.259 356.995 116.362 356.984L95.6473 356.86C93.7505 356.849 92.2238 355.304 92.2351 353.407L92.2504 350.852L119.831 351.017Z" fill="#373737"/>
<path d="M125.601 353.075L86.8081 352.844C84.6447 352.831 82.6982 351.529 81.8653 349.535L71.0546 323.7L141.363 324.12L130.606 349.769C129.76 351.782 127.785 353.088 125.601 353.075Z" fill="#5F5F5F"/>
<path d="M138.583 315.767L73.9341 315.381C72.3716 315.372 71.0967 316.629 71.0874 318.192L71.0545 323.702L141.361 324.122L141.394 318.612C141.404 317.049 140.146 315.776 138.583 315.767Z" fill="#F3B03E"/>
<path d="M79.9265 339.732C79.5404 339.832 79.1335 339.639 79.0206 339.3L76.9915 333.297L74.9623 327.295C74.8474 326.958 75.069 326.601 75.4551 326.503C75.8412 326.402 76.2461 326.596 76.3609 326.935L78.3901 332.937L80.4193 338.937C80.5321 339.276 80.3126 339.631 79.9265 339.732Z" fill="#373737"/>
<path d="M85.5737 339.769C85.1877 339.847 84.8035 339.636 84.7132 339.297L83.1311 333.293L81.5469 327.292C81.4587 326.953 81.6965 326.616 82.0846 326.538C82.4705 326.46 82.8548 326.674 82.9451 327.013L84.5272 333.01L86.1114 339.016C86.2016 339.355 85.9597 339.692 85.5737 339.769Z" fill="#373737"/>
<path d="M91.2191 339.807C90.8333 339.862 90.4655 339.632 90.4019 339.294L89.2648 333.291L88.1297 327.29C88.0661 326.951 88.3285 326.629 88.7143 326.573C89.1022 326.518 89.4659 326.75 89.5315 327.087L90.6646 333.09L91.8038 339.091C91.8674 339.43 91.605 339.752 91.2191 339.807Z" fill="#373737"/>
<path d="M96.8666 339.829C96.4809 339.863 96.1358 339.615 96.0968 339.276L95.4067 333.274L94.7166 327.27C94.6776 326.931 94.9583 326.629 95.3461 326.597C95.7318 326.562 96.0769 326.81 96.1159 327.149L96.806 333.151L97.4961 339.154C97.5351 339.492 97.2204 339.987 96.8666 339.829Z" fill="#373737"/>
<path d="M102.511 339.879C102.126 339.891 101.801 339.626 101.789 339.288L101.542 333.284L101.301 327.28C101.286 326.942 101.59 326.657 101.975 326.645C102.363 326.635 102.687 326.901 102.702 327.239L102.945 333.243L103.188 339.247C103.202 339.585 102.897 339.867 102.511 339.879Z" fill="#373737"/>
<path d="M108.159 339.914C107.773 339.904 107.465 339.621 107.478 339.283L107.679 333.28L107.884 327.274C107.894 326.934 108.219 326.672 108.605 326.682C108.992 326.693 109.296 326.975 109.284 327.314L109.082 333.319L108.878 339.322C108.866 339.662 108.544 339.925 108.159 339.914Z" fill="#373737"/>
<path d="M113.806 339.952C113.421 339.919 113.133 339.62 113.17 339.282L113.819 333.275L114.47 327.269C114.507 326.931 114.847 326.682 115.234 326.716C115.622 326.749 115.907 327.05 115.87 327.388L115.221 333.394L114.57 339.401C114.533 339.739 114.193 339.985 113.806 339.952Z" fill="#373737"/>
<path d="M119.449 339.99C119.064 339.936 118.8 339.617 118.861 339.279L119.957 333.273L121.051 327.267C121.113 326.929 121.479 326.697 121.866 326.753C122.253 326.807 122.516 327.126 122.455 327.466L121.359 333.47L120.265 339.476C120.203 339.816 119.837 340.046 119.449 339.99Z" fill="#373737"/>
<path d="M125.097 340.028C124.709 339.952 124.465 339.614 124.554 339.276L126.095 333.271L127.638 327.263C127.726 326.925 128.109 326.712 128.496 326.789C128.883 326.867 129.125 327.202 129.039 327.54L127.496 333.548L125.957 339.553C125.868 339.893 125.482 340.104 125.097 340.028Z" fill="#373737"/>
<path d="M130.742 340.066C130.355 339.967 130.132 339.611 130.244 339.273L132.232 333.266L134.223 327.26C134.333 326.922 134.736 326.725 135.123 326.826C135.51 326.925 135.732 327.279 135.621 327.619L133.633 333.625L131.647 339.63C131.536 339.97 131.129 340.164 130.742 340.066Z" fill="#373737"/>
<path d="M119.319 436.607L119.271 444.707C119.145 448.602 115.969 451.721 112.052 451.697L98.846 451.618C94.9294 451.595 91.7697 448.439 91.7109 444.542L91.6904 444.542L91.7388 436.442L119.319 436.607Z" fill="#F3B03E"/>
<path d="M119.285 442.48L91.7041 442.315L91.7134 440.756L119.294 440.921L119.285 442.48Z" fill="#5F5F5F"/>
<path d="M106.16 406.121L113.967 406.168L114.069 389.135L106.261 389.088L106.16 406.121Z" fill="#F3B03E"/>
<path d="M106.16 406.121L113.967 406.168L114.053 391.864L106.245 391.818L106.16 406.121Z" fill="#EAA139"/>
<path d="M106.16 406.123L113.967 406.17L114.013 398.561L106.205 398.515L106.16 406.123Z" fill="#F3B03E"/>
<path d="M110.399 381.894C110.896 381.897 111.297 382.303 111.294 382.8C111.291 383.297 110.885 383.698 110.388 383.695C109.891 383.692 109.49 383.286 109.493 382.789C109.496 382.292 109.902 381.891 110.399 381.894Z" fill="#FF0000"/>
<path d="M175.403 122.587C175.069 122.44 174.786 122.208 174.556 121.891C174.327 121.575 174.152 121.172 174.034 120.681C173.917 120.19 173.858 119.6 173.858 118.911C173.858 117.609 174.122 116.607 174.651 115.904C175.18 115.202 175.938 114.85 176.927 114.85C177.42 114.85 177.871 114.943 178.278 115.127C178.684 115.311 179.059 115.633 179.4 116.092V121.209C179.017 121.717 178.598 122.109 178.143 122.388C177.687 122.666 177.156 122.805 176.551 122.805C176.12 122.805 175.737 122.733 175.403 122.587ZM181.258 124.162V108.786H179.4V114.652C179.038 114.255 178.628 113.947 178.168 113.728C177.709 113.509 177.156 113.4 176.509 113.4C175.792 113.4 175.152 113.54 174.588 113.823C174.025 114.104 173.546 114.492 173.153 114.986C172.76 115.479 172.459 116.063 172.25 116.734C172.041 117.406 171.937 118.131 171.937 118.911C171.937 119.788 172.03 120.564 172.218 121.239C172.406 121.915 172.675 122.479 173.022 122.931C173.37 123.382 173.791 123.725 174.285 123.958C174.779 124.192 175.329 124.308 175.934 124.308C176.686 124.308 177.353 124.143 177.934 123.812C178.515 123.482 179.032 123.042 179.484 122.492L179.651 123.775C179.721 124.033 179.888 124.162 180.152 124.162H181.258Z" fill="black"/>
<path d="M161.017 124.162V116.375C161.421 115.923 161.861 115.564 162.337 115.3C162.814 115.036 163.327 114.903 163.877 114.903C164.629 114.903 165.186 115.123 165.552 115.565C165.918 116.007 166.1 116.628 166.1 117.428V124.162H167.958V117.428C167.958 116.83 167.882 116.284 167.729 115.79C167.575 115.296 167.352 114.873 167.056 114.521C166.76 114.17 166.391 113.899 165.949 113.707C165.507 113.515 164.997 113.421 164.42 113.421C163.676 113.421 163.019 113.577 162.451 113.89C161.884 114.203 161.372 114.613 160.912 115.122L160.766 113.974C160.696 113.716 160.529 113.588 160.265 113.588H159.159V124.162H161.017Z" fill="black"/>
<path d="M145.358 113.588V120.332C145.358 120.93 145.432 121.476 145.582 121.97C145.732 122.464 145.957 122.886 146.256 123.234C146.556 123.581 146.926 123.85 147.368 124.042C147.81 124.234 148.319 124.329 148.897 124.329C149.635 124.329 150.288 124.175 150.859 123.865C151.43 123.556 151.945 123.147 152.404 122.638L152.55 123.776C152.62 124.033 152.787 124.162 153.052 124.162H154.158V113.588H152.3V121.386C151.896 121.845 151.455 122.202 150.975 122.46C150.495 122.718 149.982 122.847 149.44 122.847C148.695 122.847 148.138 122.628 147.769 122.19C147.401 121.752 147.217 121.133 147.217 120.332V113.588H145.358Z" fill="black"/>
<path d="M134.96 122.587C134.571 122.406 134.244 122.146 133.984 121.808C133.724 121.47 133.528 121.054 133.399 120.56C133.271 120.066 133.207 119.506 133.207 118.88C133.207 118.254 133.271 117.691 133.399 117.194C133.528 116.696 133.724 116.278 133.984 115.936C134.244 115.595 134.571 115.333 134.96 115.153C135.35 114.972 135.809 114.882 136.338 114.882C137.382 114.882 138.162 115.234 138.677 115.936C139.191 116.639 139.449 117.62 139.449 118.88C139.449 120.133 139.191 121.109 138.677 121.808C138.162 122.508 137.382 122.858 136.338 122.858C135.809 122.858 135.35 122.767 134.96 122.587ZM134.244 113.807C133.622 114.064 133.091 114.43 132.653 114.903C132.214 115.376 131.878 115.948 131.641 116.62C131.404 117.292 131.286 118.041 131.286 118.869C131.286 119.704 131.404 120.456 131.641 121.124C131.878 121.792 132.214 122.363 132.653 122.836C133.091 123.309 133.622 123.674 134.244 123.928C134.867 124.182 135.566 124.308 136.338 124.308C137.111 124.308 137.809 124.182 138.431 123.928C139.054 123.674 139.583 123.309 140.018 122.836C140.453 122.363 140.787 121.792 141.02 121.124C141.253 120.456 141.37 119.704 141.37 118.869C141.37 118.041 141.253 117.292 141.02 116.62C140.787 115.948 140.453 115.376 140.018 114.903C139.583 114.43 139.054 114.064 138.431 113.807C137.809 113.549 137.111 113.421 136.338 113.421C135.566 113.421 134.867 113.549 134.244 113.807Z" fill="black"/>
<path d="M119.321 109.202V124.162H121.358V117.732H127.496V116.082H121.358V110.853H128.54V109.202H119.321Z" fill="black"/>
<path d="M107.933 124.074C108.385 123.903 108.772 123.669 109.092 123.369L108.549 122.482C108.473 122.364 108.385 122.304 108.288 122.304C108.233 122.304 108.167 122.33 108.095 122.383C108.021 122.434 107.933 122.492 107.828 122.555C107.724 122.617 107.601 122.675 107.459 122.727C107.316 122.779 107.147 122.805 106.952 122.805C106.61 122.805 106.333 122.698 106.116 122.482C105.9 122.266 105.793 121.936 105.793 121.49V115.143H108.821V113.797H105.793V110.153H104.854C104.736 110.153 104.638 110.186 104.562 110.252C104.485 110.319 104.439 110.403 104.425 110.508L103.998 113.776L102.265 113.994V114.736C102.265 114.875 102.303 114.977 102.379 115.043C102.455 115.11 102.55 115.143 102.662 115.143H103.935V121.615C103.935 122.492 104.16 123.164 104.608 123.631C105.057 124.097 105.699 124.329 106.534 124.329C107.014 124.329 107.481 124.245 107.933 124.074Z" fill="black"/>
<path d="M92.6817 122.587C92.2924 122.406 91.9657 122.146 91.7054 121.808C91.445 121.47 91.2497 121.054 91.1208 120.56C90.9918 120.066 90.9279 119.506 90.9279 118.88C90.9279 118.254 90.9918 117.691 91.1208 117.194C91.2497 116.696 91.445 116.278 91.7054 115.936C91.9657 115.595 92.2924 115.333 92.6817 115.153C93.0711 114.972 93.5304 114.882 94.0597 114.882C95.1037 114.882 95.8835 115.234 96.3981 115.936C96.9127 116.639 97.1706 117.62 97.1706 118.88C97.1706 120.133 96.9127 121.109 96.3981 121.808C95.8835 122.508 95.1037 122.858 94.0597 122.858C93.5304 122.858 93.0711 122.767 92.6817 122.587ZM91.967 113.807C91.3443 114.064 90.8125 114.43 90.374 114.903C89.9356 115.376 89.5991 115.948 89.362 116.62C89.125 117.292 89.0071 118.041 89.0071 118.869C89.0071 119.704 89.125 120.456 89.362 121.124C89.5991 121.792 89.9356 122.363 90.374 122.836C90.8125 123.309 91.3443 123.674 91.967 123.928C92.5896 124.182 93.2872 124.308 94.0597 124.308C94.8322 124.308 95.5298 124.182 96.1525 123.928C96.7752 123.674 97.3045 123.309 97.7393 122.836C98.174 122.363 98.5081 121.792 98.7414 121.124C98.9748 120.456 99.0915 119.704 99.0915 118.869C99.0915 118.041 98.9748 117.292 98.7414 116.62C98.5081 115.948 98.174 115.376 97.7393 114.903C97.3045 114.43 96.7752 114.064 96.1525 113.807C95.5298 113.549 94.8322 113.421 94.0597 113.421C93.2872 113.421 92.5896 113.549 91.967 113.807Z" fill="black"/>
<path d="M73.3896 109.202H72.3456V124.162H74.1203V113.503C74.1203 113.364 74.1166 113.212 74.1093 113.045C74.1019 112.878 74.0921 112.707 74.0786 112.533L82.7321 123.798C82.8365 123.93 82.9434 124.024 83.0514 124.079C83.1595 124.134 83.2934 124.162 83.453 124.162H84.4761V109.202H82.7014V119.799C82.7014 119.958 82.7039 120.124 82.7112 120.295C82.7186 120.466 82.7321 120.641 82.753 120.822L74.0884 109.547C73.9766 109.409 73.8784 109.316 73.7912 109.271C73.704 109.226 73.5701 109.202 73.3896 109.202Z" fill="black"/>
<path d="M58.5611 115.002C58.8915 115.144 59.1715 115.347 59.4011 115.607C59.6308 115.869 59.8052 116.178 59.9231 116.537C60.041 116.895 60.1012 117.291 60.1012 117.722H54.3485C54.4738 116.803 54.7943 116.084 55.3089 115.565C55.8235 115.047 56.531 114.788 57.4287 114.788C57.8537 114.788 58.2307 114.859 58.5611 115.002ZM55.32 113.823C54.7071 114.09 54.1889 114.46 53.7639 114.929C53.339 115.399 53.0135 115.955 52.7875 116.594C52.5616 117.234 52.4486 117.923 52.4486 118.661C52.4486 119.573 52.5739 120.381 52.8244 121.083C53.0749 121.786 53.425 122.375 53.8732 122.852C54.3215 123.328 54.8558 123.691 55.4711 123.938C56.0876 124.184 56.7606 124.308 57.4914 124.308C57.8745 124.308 58.2602 124.275 58.6495 124.209C59.0388 124.143 59.4159 124.044 59.7819 123.912C60.1479 123.779 60.4905 123.611 60.8111 123.406C61.1316 123.201 61.4055 122.959 61.6351 122.68L61.1132 122.002C61.0297 121.884 60.9118 121.824 60.7582 121.824C60.6403 121.824 60.4991 121.878 60.3358 121.986C60.1724 122.094 59.9685 122.211 59.7254 122.336C59.4822 122.461 59.1911 122.577 58.8534 122.685C58.5156 122.793 58.114 122.847 57.6473 122.847C57.1463 122.847 56.6943 122.765 56.2902 122.601C55.8862 122.438 55.5386 122.191 55.2463 121.861C54.954 121.53 54.7243 121.118 54.5573 120.624C54.3903 120.13 54.2994 119.548 54.2859 118.88H61.322C61.4964 118.88 61.6143 118.831 61.6769 118.734C61.7395 118.637 61.7715 118.442 61.7715 118.149C61.7715 117.398 61.6609 116.728 61.4423 116.14C61.2225 115.552 60.9179 115.058 60.5286 114.658C60.1393 114.257 59.6762 113.951 59.1408 113.739C58.6053 113.527 58.0207 113.421 57.387 113.421C56.6218 113.421 55.9328 113.555 55.32 113.823Z" fill="black"/>
<path d="M43.1686 118.838C42.8836 118.734 42.6429 118.588 42.4476 118.4C42.2524 118.212 42.105 117.988 42.0043 117.727C41.9036 117.466 41.8532 117.178 41.8532 116.865C41.8532 116.217 42.0497 115.704 42.4427 115.321C42.8357 114.938 43.4056 114.746 44.1499 114.746C44.9015 114.746 45.4738 114.938 45.8668 115.321C46.2598 115.704 46.4563 116.217 46.4563 116.865C46.4563 117.178 46.4072 117.466 46.3102 117.727C46.2132 117.988 46.067 118.212 45.8717 118.4C45.6765 118.588 45.4357 118.734 45.1471 118.838C44.8585 118.943 44.5257 118.996 44.1499 118.996C43.7814 118.996 43.4535 118.943 43.1686 118.838ZM47.2288 125.476C47.0827 125.711 46.8727 125.912 46.5976 126.083C46.3225 126.254 45.9872 126.385 45.5905 126.477C45.1938 126.57 44.7443 126.616 44.2432 126.616C43.7286 126.616 43.2816 126.572 42.9021 126.485C42.5226 126.398 42.2082 126.28 41.9576 126.13C41.7071 125.98 41.5204 125.801 41.3988 125.596C41.2772 125.391 41.2158 125.169 41.2158 124.932C41.2158 124.555 41.3398 124.231 41.5867 123.96C41.8336 123.688 42.1553 123.457 42.552 123.27C42.8935 123.364 43.2521 123.411 43.6279 123.411C44.0037 123.411 44.3722 123.411 44.7345 123.411C45.0968 123.411 45.4406 123.432 45.7673 123.475C46.094 123.518 46.3839 123.583 46.6344 123.671C46.885 123.76 47.0827 123.886 47.2288 124.049C47.375 124.213 47.4487 124.429 47.4487 124.699C47.4487 124.983 47.375 125.242 47.2288 125.476ZM42.5373 113.649C42.046 113.809 41.6236 114.037 41.2686 114.333C40.9137 114.629 40.6361 114.988 40.4384 115.409C40.2407 115.831 40.1412 116.299 40.1412 116.813C40.1412 117.46 40.2886 118.025 40.5845 118.509C40.8805 118.993 41.2895 119.381 41.8115 119.673C41.5892 119.785 41.3939 119.913 41.2269 120.059C41.0598 120.205 40.9198 120.358 40.8044 120.517C40.6902 120.677 40.603 120.839 40.5477 121.002C40.4924 121.166 40.4642 121.324 40.4642 121.476C40.4642 121.866 40.5526 122.176 40.7307 122.41C40.9088 122.643 41.1458 122.829 41.4455 122.967C40.8682 123.184 40.4138 123.473 40.0835 123.839C39.7531 124.205 39.5873 124.649 39.5873 125.172C39.5873 125.542 39.6831 125.895 39.8747 126.233C40.0663 126.571 40.3524 126.868 40.7356 127.126C41.1188 127.384 41.6014 127.589 42.1824 127.742C42.7633 127.896 43.44 127.973 44.2125 127.973C44.985 127.973 45.6765 127.871 46.2893 127.671C46.9021 127.47 47.4204 127.202 47.8454 126.868C48.2703 126.533 48.5958 126.152 48.8217 125.722C49.0477 125.292 49.1607 124.849 49.1607 124.391C49.1607 123.898 49.0588 123.495 48.8574 123.186C48.6559 122.877 48.3882 122.632 48.0542 122.456C47.7201 122.281 47.3406 122.153 46.9157 122.076C46.4907 121.998 46.0584 121.96 45.6163 121.96C45.1741 121.96 44.7418 121.96 44.3169 121.96C43.892 121.96 43.5124 121.931 43.1784 121.873C42.8443 121.815 42.5766 121.72 42.3752 121.587C42.1738 121.454 42.0718 121.258 42.0718 120.999C42.0718 120.84 42.1296 120.679 42.245 120.514C42.3604 120.348 42.5287 120.193 42.751 120.049C43.1894 120.167 43.6561 120.226 44.1499 120.226C44.7271 120.226 45.2577 120.146 45.7415 119.987C46.2254 119.827 46.643 119.597 46.9943 119.298C47.3455 118.998 47.6218 118.638 47.8196 118.217C48.0173 117.796 48.1168 117.328 48.1168 116.813C48.1168 116.257 47.9989 115.752 47.7619 115.3L48.9618 115.133C49.2541 115.07 49.4002 114.924 49.4002 114.695V114.006H46.53C46.2033 113.81 45.8398 113.662 45.4394 113.561C45.039 113.46 44.6092 113.41 44.1499 113.41C43.5653 113.41 43.0273 113.49 42.5373 113.649Z" fill="black"/>
<path d="M30.3286 122.936C30.1198 122.877 29.9393 122.781 29.7857 122.652C29.6322 122.523 29.5119 122.356 29.421 122.153C29.3301 121.951 29.2847 121.709 29.2847 121.429C29.2847 121.135 29.3694 120.869 29.5401 120.63C29.7108 120.392 29.9847 120.187 30.3605 120.011C30.7363 119.837 31.2239 119.694 31.822 119.586C32.4201 119.478 33.1472 119.423 34.0032 119.423V121.605C33.7944 121.828 33.5795 122.025 33.3609 122.2C33.1423 122.374 32.9126 122.522 32.6719 122.643C32.4324 122.765 32.1769 122.859 31.9055 122.926C31.6341 122.992 31.3344 123.024 31.0078 123.024C30.7646 123.024 30.5374 122.994 30.3286 122.936ZM35.8307 117.398C35.8307 116.806 35.7496 116.263 35.59 115.769C35.4303 115.276 35.1933 114.854 34.8801 114.507C34.5669 114.159 34.1813 113.886 33.722 113.691C33.2626 113.496 32.737 113.4 32.145 113.4C31.3234 113.4 30.5767 113.539 29.9012 113.818C29.2257 114.097 28.5957 114.517 28.0111 115.08L28.3451 115.676C28.4004 115.773 28.4765 115.854 28.5699 115.92C28.6644 115.987 28.7737 116.02 28.899 116.02C29.0587 116.02 29.2208 115.963 29.3841 115.848C29.5475 115.734 29.7428 115.603 29.9687 115.461C30.1947 115.319 30.4625 115.191 30.7719 115.075C31.0814 114.961 31.4634 114.903 31.9154 114.903C32.6043 114.903 33.1251 115.115 33.4763 115.538C33.8276 115.962 34.0032 116.587 34.0032 117.414V118.244C32.8058 118.244 31.7938 118.34 30.966 118.531C30.1382 118.723 29.4676 118.969 28.9555 119.269C28.4446 119.57 28.0737 119.914 27.844 120.302C27.6144 120.69 27.5002 121.093 27.5002 121.512C27.5002 121.994 27.5775 122.411 27.7347 122.764C27.8919 123.116 28.1019 123.407 28.366 123.638C28.63 123.869 28.942 124.041 29.3006 124.156C29.6592 124.272 30.0437 124.329 30.4539 124.329C30.8579 124.329 31.2251 124.295 31.5555 124.225C31.8859 124.155 32.1978 124.052 32.4901 123.917C32.7824 123.78 33.0612 123.613 33.3253 123.416C33.5893 123.218 33.8607 122.993 34.1395 122.743L34.3483 123.724C34.3827 123.905 34.4552 124.024 34.5669 124.079C34.6787 124.134 34.8248 124.162 35.0054 124.162H35.8307V117.398Z" fill="black"/>
<path d="M16.4023 110.8H18.8034C19.9935 110.8 20.8826 111.068 21.4709 111.603C22.0592 112.139 22.3527 112.884 22.3527 113.837C22.3527 114.297 22.2766 114.718 22.1231 115.101C21.9695 115.484 21.7448 115.812 21.4451 116.087C21.1455 116.362 20.7746 116.576 20.3324 116.73C19.8903 116.883 19.3806 116.959 18.8034 116.959H16.4023V110.8ZM18.8034 118.567C19.7011 118.567 20.4982 118.45 21.1946 118.217C21.8909 117.984 22.4719 117.658 22.9422 117.241C23.4114 116.823 23.77 116.326 24.0132 115.748C24.2564 115.171 24.378 114.534 24.378 113.837C24.378 113.135 24.265 112.499 24.039 111.928C23.813 111.356 23.4703 110.87 23.011 110.466C22.5517 110.062 21.9708 109.751 21.272 109.531C20.5719 109.313 19.7503 109.202 18.8034 109.202H14.3882V124.162H16.4023V118.567H18.8034Z" fill="black"/>
<path d="M142.443 66.0696H142.563V81.4154H133.536L142.443 66.0696ZM121.861 87.5242C122.022 87.986 122.291 88.406 122.673 88.7867C123.054 89.1687 123.555 89.4794 124.178 89.7201C124.799 89.9608 125.572 90.0812 126.495 90.0812H142.563V94.1734C142.563 95.8989 142.984 97.2118 143.827 98.1145C144.669 99.0172 145.813 99.4692 147.257 99.4692C148.701 99.4692 149.845 99.0172 150.687 98.1145C151.53 97.2118 151.951 95.8584 151.951 94.053V90.0812H153.997C155.521 90.0812 156.725 89.741 157.608 89.0581C158.49 88.3765 158.932 87.2736 158.932 85.7483C158.932 84.2241 158.49 83.1213 157.608 82.4384C156.725 81.7568 155.521 81.4154 153.997 81.4154H151.951V63.2412C151.951 61.0747 151.309 59.3099 150.025 57.9454C148.741 56.5821 146.976 55.8993 144.73 55.8993C143.204 55.8993 141.89 56.1314 140.787 56.592C139.683 57.0538 138.691 57.9663 137.809 59.3295L123.486 81.4755C123.125 82.038 122.724 82.7393 122.283 83.5818C121.842 84.4243 121.621 85.3074 121.621 86.2297C121.621 86.6313 121.702 87.0636 121.861 87.5242Z" fill="black"/>
<path d="M90.1465 73.4115C90.3872 71.8874 90.8085 70.4725 91.4103 69.1682C92.0121 67.8652 92.8141 66.7918 93.8175 65.9492C94.8196 65.1067 96.0834 64.6855 97.6088 64.6855C99.1329 64.6855 100.397 65.1067 101.4 65.9492C102.402 66.7918 103.205 67.8652 103.807 69.1682C104.409 70.4725 104.83 71.8874 105.071 73.4115C105.312 74.9368 105.432 76.3603 105.432 77.6842C105.432 79.0082 105.312 80.4328 105.071 81.957C104.83 83.4823 104.409 84.8972 103.807 86.2002C103.205 87.5045 102.402 88.5767 101.4 89.4192C100.397 90.2617 99.1329 90.683 97.6088 90.683C96.0834 90.683 94.8196 90.2617 93.8175 89.4192C92.8141 88.5767 92.0121 87.5045 91.4103 86.2002C90.8085 84.8972 90.3872 83.4823 90.1465 81.957C89.9058 80.4328 89.7854 79.0082 89.7854 77.6842C89.7854 76.3603 89.9058 74.9368 90.1465 73.4115ZM89.6049 57.2232C87.3574 58.5079 85.4918 60.1929 84.0082 62.2783C82.5234 64.3649 81.4303 66.7525 80.729 69.4396C80.0265 72.1281 79.6753 74.8767 79.6753 77.6842C79.6753 80.493 80.0265 83.2416 80.729 85.9288C81.4303 88.6172 82.5234 91.0047 84.0082 93.0901C85.4918 95.1768 87.3574 96.8618 89.6049 98.1452C91.8512 99.4286 94.5187 100.071 97.6088 100.071C100.698 100.071 103.365 99.4286 105.613 98.1452C107.859 96.8618 109.724 95.1768 111.209 93.0901C112.693 91.0047 113.787 88.6172 114.49 85.9288C115.191 83.2416 115.542 80.493 115.542 77.6842C115.542 74.8767 115.191 72.1281 114.49 69.4396C113.787 66.7525 112.693 64.3649 111.209 62.2783C109.724 60.1929 107.859 58.5079 105.613 57.2232C103.365 55.9398 100.698 55.2975 97.6088 55.2975C94.5187 55.2975 91.8512 55.9398 89.6049 57.2232Z" fill="black"/>
<path d="M56.5676 66.0696H56.688V81.4154H47.661L56.5676 66.0696ZM35.9862 87.5242C36.1471 87.986 36.4161 88.406 36.7981 88.7867C37.1788 89.1687 37.6799 89.4794 38.3025 89.7201C38.924 89.9608 39.6965 90.0812 40.6201 90.0812H56.688V94.1734C56.688 95.8989 57.1092 97.2118 57.9517 98.1145C58.7942 99.0172 59.9376 99.4692 61.3819 99.4692C62.8263 99.4692 63.9697 99.0172 64.8122 98.1145C65.6547 97.2118 66.0759 95.8584 66.0759 94.053V90.0812H68.122C69.6462 90.0812 70.8498 89.741 71.7328 89.0581C72.6146 88.3765 73.0568 87.2736 73.0568 85.7483C73.0568 84.2241 72.6146 83.1213 71.7328 82.4384C70.8498 81.7568 69.6462 81.4154 68.122 81.4154H66.0759V63.2412C66.0759 61.0747 65.4336 59.3099 64.1502 57.9454C62.8656 56.5821 61.1007 55.8993 58.8544 55.8993C57.329 55.8993 56.0149 56.1314 54.9121 56.592C53.8079 57.0538 52.8156 57.9663 51.9338 59.3295L37.6111 81.4755C37.25 82.038 36.8484 82.7393 36.4075 83.5818C35.9666 84.4243 35.7455 85.3074 35.7455 86.2297C35.7455 86.6313 35.8266 87.0636 35.9862 87.5242Z" fill="black"/>
</svg>
