<svg width="64" height="64" viewBox="0 0 64 64" fill="none" xmlns="http://www.w3.org/2000/svg">
<path d="M38.49 31.9999C48.05 25.6699 43.63 10.5499 32 10.4999C20.37 10.4499 16 25.6699 25.51 31.9999C21.2928 33.3799 17.6193 36.0567 15.0136 39.6483C12.408 43.2398 11.0033 47.5627 11 51.9999C11 52.3977 11.158 52.7792 11.4393 53.0605C11.7206 53.3418 12.1022 53.4999 12.5 53.4999C12.8978 53.4999 13.2794 53.3418 13.5607 53.0605C13.842 52.7792 14 52.3977 14 51.9999C14 47.226 15.8964 42.6476 19.2721 39.272C22.6477 35.8963 27.2261 33.9999 32 33.9999C36.7739 33.9999 41.3523 35.8963 44.7279 39.272C48.1036 42.6476 50 47.226 50 51.9999C50 52.3977 50.158 52.7792 50.4393 53.0605C50.7206 53.3418 51.1022 53.4999 51.5 53.4999C51.8978 53.4999 52.2794 53.3418 52.5607 53.0605C52.842 52.7792 53 52.3977 53 51.9999C52.9967 47.5627 51.592 43.2398 48.9864 39.6483C46.3807 36.0567 42.7072 33.3799 38.49 31.9999V31.9999ZM23.26 22.2399C23.2626 19.9227 24.1843 17.7012 25.8228 16.0627C27.4613 14.4242 29.6828 13.5025 32 13.4999C43.58 13.9599 43.58 30.4999 32 30.9699C29.6845 30.9672 27.4645 30.0469 25.8263 28.4106C24.1881 26.7743 23.2653 24.5553 23.26 22.2399V22.2399Z" fill="url(#paint0_linear_122:2489)" id="id_101"></path>
<defs>
<linearGradient id="paint0_linear_122:2489" x1="10.97" y1="31.9999" x2="53.03" y2="31.9999" gradientUnits="userSpaceOnUse">
<stop stop-color="#c98821" id="id_102"></stop>
<stop offset="0.63" stop-color="#c98821" id="id_103"></stop>
<stop offset="1" stop-color="#c98821" id="id_104"></stop>
</linearGradient>
</defs>
</svg>