<svg width="25" height="26" viewBox="0 0 25 26" fill="none" xmlns="http://www.w3.org/2000/svg">
<mask id="path-1-inside-1_394_5579" fill="white">
<path fill-rule="evenodd" clip-rule="evenodd" d="M18.9719 2.3037C17.0841 1.15901 14.869 0.5 12.5 0.5C5.59644 0.5 0 6.09644 0 13C0 14.6816 0.332074 16.2857 0.934219 17.7502C1.2524 16.9539 1.65186 16.2227 2.1326 15.5567C3.55434 13.5676 5.71509 12.0903 8.61487 11.1247L13.4291 9.50252C15.3435 8.84592 16.7511 8.02519 17.652 7.0403C18.5529 6.05541 19.0034 4.71326 19.0034 3.01385C19.0034 2.77171 18.9929 2.535 18.9719 2.3037ZM5.16121 23.12C5.22457 21.7516 5.61565 20.592 6.33446 19.6411C7.12275 18.5789 8.33333 17.7871 9.96622 17.2657L15.3716 15.5277C18.3418 14.5621 20.5236 13.0655 21.9172 11.0378C22.6774 9.90982 23.2281 8.62648 23.5694 7.18775C24.483 8.92412 25 10.9017 25 13C25 19.9036 19.4036 25.5 12.5 25.5C9.75793 25.5 7.22206 24.6171 5.16121 23.12Z"/>
</mask>
<path fill-rule="evenodd" clip-rule="evenodd" d="M18.9719 2.3037C17.0841 1.15901 14.869 0.5 12.5 0.5C5.59644 0.5 0 6.09644 0 13C0 14.6816 0.332074 16.2857 0.934219 17.7502C1.2524 16.9539 1.65186 16.2227 2.1326 15.5567C3.55434 13.5676 5.71509 12.0903 8.61487 11.1247L13.4291 9.50252C15.3435 8.84592 16.7511 8.02519 17.652 7.0403C18.5529 6.05541 19.0034 4.71326 19.0034 3.01385C19.0034 2.77171 18.9929 2.535 18.9719 2.3037ZM5.16121 23.12C5.22457 21.7516 5.61565 20.592 6.33446 19.6411C7.12275 18.5789 8.33333 17.7871 9.96622 17.2657L15.3716 15.5277C18.3418 14.5621 20.5236 13.0655 21.9172 11.0378C22.6774 9.90982 23.2281 8.62648 23.5694 7.18775C24.483 8.92412 25 10.9017 25 13C25 19.9036 19.4036 25.5 12.5 25.5C9.75793 25.5 7.22206 24.6171 5.16121 23.12Z" fill="#29A173"/>
<path fill-rule="evenodd" clip-rule="evenodd" d="M18.9719 2.3037C17.0841 1.15901 14.869 0.5 12.5 0.5C5.59644 0.5 0 6.09644 0 13C0 14.6816 0.332074 16.2857 0.934219 17.7502C1.2524 16.9539 1.65186 16.2227 2.1326 15.5567C3.55434 13.5676 5.71509 12.0903 8.61487 11.1247L13.4291 9.50252C15.3435 8.84592 16.7511 8.02519 17.652 7.0403C18.5529 6.05541 19.0034 4.71326 19.0034 3.01385C19.0034 2.77171 18.9929 2.535 18.9719 2.3037ZM5.16121 23.12C5.22457 21.7516 5.61565 20.592 6.33446 19.6411C7.12275 18.5789 8.33333 17.7871 9.96622 17.2657L15.3716 15.5277C18.3418 14.5621 20.5236 13.0655 21.9172 11.0378C22.6774 9.90982 23.2281 8.62648 23.5694 7.18775C24.483 8.92412 25 10.9017 25 13C25 19.9036 19.4036 25.5 12.5 25.5C9.75793 25.5 7.22206 24.6171 5.16121 23.12Z" fill="black" fill-opacity="0.2"/>
<path fill-rule="evenodd" clip-rule="evenodd" d="M18.9719 2.3037C17.0841 1.15901 14.869 0.5 12.5 0.5C5.59644 0.5 0 6.09644 0 13C0 14.6816 0.332074 16.2857 0.934219 17.7502C1.2524 16.9539 1.65186 16.2227 2.1326 15.5567C3.55434 13.5676 5.71509 12.0903 8.61487 11.1247L13.4291 9.50252C15.3435 8.84592 16.7511 8.02519 17.652 7.0403C18.5529 6.05541 19.0034 4.71326 19.0034 3.01385C19.0034 2.77171 18.9929 2.535 18.9719 2.3037ZM5.16121 23.12C5.22457 21.7516 5.61565 20.592 6.33446 19.6411C7.12275 18.5789 8.33333 17.7871 9.96622 17.2657L15.3716 15.5277C18.3418 14.5621 20.5236 13.0655 21.9172 11.0378C22.6774 9.90982 23.2281 8.62648 23.5694 7.18775C24.483 8.92412 25 10.9017 25 13C25 19.9036 19.4036 25.5 12.5 25.5C9.75793 25.5 7.22206 24.6171 5.16121 23.12Z" fill="black" fill-opacity="0.2"/>
<path d="M18.9719 2.3037L19.9678 2.21328L19.9221 1.71042L19.4904 1.44861L18.9719 2.3037ZM0.934219 17.7502L0.00934227 18.1305L0.947464 20.4122L1.86283 18.1213L0.934219 17.7502ZM2.1326 15.5567L2.94346 16.1419L2.94615 16.1382L2.1326 15.5567ZM8.61487 11.1247L8.9308 12.0735L8.93418 12.0723L8.61487 11.1247ZM13.4291 9.50252L13.7484 10.4502L13.7535 10.4484L13.4291 9.50252ZM17.652 7.0403L16.9142 6.36535L17.652 7.0403ZM5.16121 23.12L4.16228 23.0737L4.13735 23.6122L4.57349 23.9291L5.16121 23.12ZM6.33446 19.6411L7.13222 20.2441L7.13747 20.237L6.33446 19.6411ZM9.96622 17.2657L10.2704 18.2184L10.2723 18.2177L9.96622 17.2657ZM15.3716 15.5277L15.6777 16.4797L15.6808 16.4787L15.3716 15.5277ZM21.9172 11.0378L22.7414 11.6042L22.7465 11.5966L21.9172 11.0378ZM23.5694 7.18775L24.4543 6.72211L23.2121 4.36118L22.5964 6.95694L23.5694 7.18775ZM12.5 1.5C14.6811 1.5 16.7175 2.10621 18.4534 3.15879L19.4904 1.44861C17.4506 0.211806 15.0569 -0.5 12.5 -0.5V1.5ZM1 13C1 6.64873 6.14873 1.5 12.5 1.5V-0.5C5.04416 -0.5 -1 5.54416 -1 13H1ZM1.8591 17.37C1.30569 16.024 1 14.5489 1 13H-1C-1 14.8143 -0.641543 16.5474 0.00934227 18.1305L1.8591 17.37ZM1.32175 14.9714C0.791085 15.7066 0.3528 16.5103 0.00560387 17.3792L1.86283 18.1213C2.15201 17.3976 2.51264 16.7388 2.94345 16.1419L1.32175 14.9714ZM8.29894 10.1759C5.24936 11.1914 2.89149 12.7752 1.31905 14.9752L2.94615 16.1382C4.21718 14.3599 6.18083 12.9892 8.93079 12.0735L8.29894 10.1759ZM13.1097 8.55487L8.29555 10.177L8.93418 12.0723L13.7484 10.4502L13.1097 8.55487ZM16.9142 6.36535C16.1698 7.17912 14.9357 7.92859 13.1046 8.5566L13.7535 10.4484C15.7512 9.76326 17.3325 8.87126 18.3899 7.71525L16.9142 6.36535ZM18.0034 3.01385C18.0034 4.53413 17.6041 5.61106 16.9142 6.36535L18.3899 7.71525C19.5017 6.49977 20.0034 4.8924 20.0034 3.01385H18.0034ZM17.976 2.39412C17.9941 2.59411 18.0034 2.80062 18.0034 3.01385H20.0034C20.0034 2.74281 19.9916 2.47589 19.9678 2.21328L17.976 2.39412ZM6.16014 23.1663C6.2156 21.9685 6.55258 21.0108 7.13219 20.2441L5.53673 19.038C4.67873 20.1731 4.23354 21.5347 4.16228 23.0737L6.16014 23.1663ZM7.13747 20.237C7.76854 19.3867 8.77812 18.6949 10.2704 18.2183L9.66203 16.3131C7.88855 16.8794 6.47696 17.7711 5.53146 19.0451L7.13747 20.237ZM10.2723 18.2177L15.6777 16.4797L15.0655 14.5757L9.66011 16.3137L10.2723 18.2177ZM15.6808 16.4787C18.8032 15.4637 21.1929 13.8572 22.7414 11.6042L21.0931 10.4714C19.8544 12.2738 17.8804 13.6606 15.0625 14.5767L15.6808 16.4787ZM22.7465 11.5966C23.5795 10.3605 24.1757 8.96417 24.5424 7.41856L22.5964 6.95694C22.2804 8.28879 21.7752 9.45913 21.088 10.4789L22.7465 11.5966ZM22.6844 7.65339C23.5243 9.24962 24 11.0678 24 13H26C26 10.7356 25.4417 8.59861 24.4543 6.72211L22.6844 7.65339ZM24 13C24 19.3513 18.8513 24.5 12.5 24.5V26.5C19.9558 26.5 26 20.4558 26 13H24ZM12.5 24.5C9.97606 24.5 7.64469 23.6881 5.74894 22.3109L4.57349 23.9291C6.79944 25.5461 9.53979 26.5 12.5 26.5V24.5Z" mask="url(#path-1-inside-1_394_5579)"/>
</svg>
