<svg width="104" height="31" viewBox="0 0 104 31" fill="none" xmlns="http://www.w3.org/2000/svg">
<path d="M9.71591 12.0909C9.63068 11.3712 9.28504 10.8125 8.67898 10.4148C8.07292 10.017 7.32955 9.81818 6.44886 9.81818C5.80492 9.81818 5.24148 9.92235 4.75852 10.1307C4.2803 10.339 3.90625 10.6255 3.63636 10.9901C3.37121 11.3546 3.23864 11.7689 3.23864 12.233C3.23864 12.6212 3.33097 12.955 3.51562 13.2344C3.70502 13.509 3.9465 13.7386 4.24006 13.9233C4.53362 14.1032 4.84138 14.2524 5.16335 14.3707C5.48532 14.4844 5.78125 14.5767 6.05114 14.6477L7.52841 15.0455C7.9072 15.1449 8.3286 15.2822 8.79261 15.4574C9.26136 15.6326 9.70881 15.8717 10.1349 16.1747C10.5658 16.473 10.9209 16.8565 11.2003 17.3253C11.4796 17.794 11.6193 18.3693 11.6193 19.0511C11.6193 19.8371 11.4134 20.5473 11.0014 21.1818C10.5942 21.8163 9.99763 22.3205 9.21165 22.6946C8.4304 23.0687 7.48106 23.2557 6.36364 23.2557C5.32197 23.2557 4.41998 23.0876 3.65767 22.7514C2.90009 22.4152 2.3035 21.9465 1.8679 21.3452C1.43703 20.7438 1.19318 20.0455 1.13636 19.25H2.95455C3.00189 19.7992 3.18655 20.2538 3.50852 20.6136C3.83523 20.9687 4.24716 21.2339 4.74432 21.4091C5.24621 21.5795 5.78598 21.6648 6.36364 21.6648C7.03598 21.6648 7.63968 21.5559 8.17472 21.3381C8.70975 21.1155 9.13352 20.8078 9.44602 20.4148C9.75852 20.017 9.91477 19.553 9.91477 19.0227C9.91477 18.5398 9.77983 18.1468 9.50994 17.8438C9.24006 17.5407 8.88494 17.2945 8.4446 17.1051C8.00426 16.9157 7.52841 16.75 7.01705 16.608L5.22727 16.0966C4.09091 15.7699 3.19129 15.3035 2.52841 14.6974C1.86553 14.0914 1.53409 13.2983 1.53409 12.3182C1.53409 11.5038 1.75426 10.7936 2.1946 10.1875C2.63968 9.5767 3.23627 9.10322 3.98438 8.76705C4.73722 8.42614 5.57765 8.25568 6.50568 8.25568C7.44318 8.25568 8.27652 8.42377 9.00568 8.75994C9.73485 9.09138 10.3125 9.54593 10.7386 10.1236C11.1695 10.7012 11.3968 11.357 11.4205 12.0909H9.71591ZM17.4982 23.2557C16.8069 23.2557 16.1796 23.1255 15.6161 22.8651C15.0527 22.5999 14.6052 22.2188 14.2738 21.7216C13.9424 21.2197 13.7766 20.6136 13.7766 19.9034C13.7766 19.2784 13.8997 18.7718 14.146 18.3835C14.3922 17.9905 14.7212 17.6828 15.1332 17.4602C15.5451 17.2377 15.9996 17.072 16.4968 16.9631C16.9987 16.8494 17.503 16.7595 18.0096 16.6932C18.6725 16.608 19.2099 16.544 19.6218 16.5014C20.0385 16.4541 20.3415 16.3759 20.5309 16.267C20.725 16.1581 20.8221 15.9687 20.8221 15.6989V15.642C20.8221 14.9413 20.6303 14.3968 20.2468 14.0085C19.868 13.6203 19.2927 13.4261 18.521 13.4261C17.7208 13.4261 17.0934 13.6013 16.6388 13.9517C16.1843 14.3021 15.8647 14.6761 15.68 15.0739L14.0891 14.5057C14.3732 13.8428 14.752 13.3267 15.2255 12.9574C15.7037 12.5833 16.2246 12.3229 16.788 12.1761C17.3562 12.0246 17.9149 11.9489 18.4641 11.9489C18.8145 11.9489 19.217 11.9915 19.6715 12.0767C20.1308 12.1572 20.5735 12.3253 20.9996 12.581C21.4305 12.8366 21.788 13.2225 22.0721 13.7386C22.3562 14.2547 22.4982 14.946 22.4982 15.8125V23H20.8221V21.5227H20.7369C20.6232 21.7595 20.4338 22.0128 20.1687 22.2827C19.9035 22.5526 19.5508 22.7822 19.1104 22.9716C18.6701 23.161 18.1327 23.2557 17.4982 23.2557ZM17.7539 21.75C18.4168 21.75 18.9755 21.6198 19.43 21.3594C19.8893 21.099 20.235 20.7628 20.467 20.3509C20.7037 19.9389 20.8221 19.5057 20.8221 19.0511V17.517C20.7511 17.6023 20.5948 17.6804 20.3533 17.7514C20.1166 17.8177 19.842 17.8769 19.5295 17.929C19.2217 17.9763 18.921 18.0189 18.6275 18.0568C18.3387 18.09 18.1043 18.1184 17.9244 18.142C17.4888 18.1989 17.0816 18.2912 16.7028 18.419C16.3287 18.5421 16.0257 18.7292 15.7937 18.9801C15.5664 19.2263 15.4528 19.5625 15.4528 19.9886C15.4528 20.571 15.6682 21.0114 16.0991 21.3097C16.5347 21.6032 17.0863 21.75 17.7539 21.75ZM30.3018 12.0909V13.5114H24.6484V12.0909H30.3018ZM26.2962 9.47727H27.9723V19.875C27.9723 20.3485 28.041 20.7036 28.1783 20.9403C28.3203 21.1723 28.5002 21.3286 28.718 21.4091C28.9406 21.4848 29.175 21.5227 29.4212 21.5227C29.6058 21.5227 29.7573 21.5133 29.8757 21.4943C29.9941 21.4706 30.0888 21.4517 30.1598 21.4375L30.5007 22.9432C30.3871 22.9858 30.2285 23.0284 30.0249 23.071C29.8213 23.1184 29.5632 23.142 29.2507 23.142C28.7772 23.142 28.3132 23.0402 27.8587 22.8366C27.4089 22.633 27.0348 22.3229 26.7365 21.9062C26.4429 21.4896 26.2962 20.964 26.2962 20.3295V9.47727Z" fill="white"/>
<path d="M9.71591 12.0909C9.63068 11.3712 9.28504 10.8125 8.67898 10.4148C8.07292 10.017 7.32955 9.81818 6.44886 9.81818C5.80492 9.81818 5.24148 9.92235 4.75852 10.1307C4.2803 10.339 3.90625 10.6255 3.63636 10.9901C3.37121 11.3546 3.23864 11.7689 3.23864 12.233C3.23864 12.6212 3.33097 12.955 3.51562 13.2344C3.70502 13.509 3.9465 13.7386 4.24006 13.9233C4.53362 14.1032 4.84138 14.2524 5.16335 14.3707C5.48532 14.4844 5.78125 14.5767 6.05114 14.6477L7.52841 15.0455C7.9072 15.1449 8.3286 15.2822 8.79261 15.4574C9.26136 15.6326 9.70881 15.8717 10.1349 16.1747C10.5658 16.473 10.9209 16.8565 11.2003 17.3253C11.4796 17.794 11.6193 18.3693 11.6193 19.0511C11.6193 19.8371 11.4134 20.5473 11.0014 21.1818C10.5942 21.8163 9.99763 22.3205 9.21165 22.6946C8.4304 23.0687 7.48106 23.2557 6.36364 23.2557C5.32197 23.2557 4.41998 23.0876 3.65767 22.7514C2.90009 22.4152 2.3035 21.9465 1.8679 21.3452C1.43703 20.7438 1.19318 20.0455 1.13636 19.25H2.95455C3.00189 19.7992 3.18655 20.2538 3.50852 20.6136C3.83523 20.9687 4.24716 21.2339 4.74432 21.4091C5.24621 21.5795 5.78598 21.6648 6.36364 21.6648C7.03598 21.6648 7.63968 21.5559 8.17472 21.3381C8.70975 21.1155 9.13352 20.8078 9.44602 20.4148C9.75852 20.017 9.91477 19.553 9.91477 19.0227C9.91477 18.5398 9.77983 18.1468 9.50994 17.8438C9.24006 17.5407 8.88494 17.2945 8.4446 17.1051C8.00426 16.9157 7.52841 16.75 7.01705 16.608L5.22727 16.0966C4.09091 15.7699 3.19129 15.3035 2.52841 14.6974C1.86553 14.0914 1.53409 13.2983 1.53409 12.3182C1.53409 11.5038 1.75426 10.7936 2.1946 10.1875C2.63968 9.5767 3.23627 9.10322 3.98438 8.76705C4.73722 8.42614 5.57765 8.25568 6.50568 8.25568C7.44318 8.25568 8.27652 8.42377 9.00568 8.75994C9.73485 9.09138 10.3125 9.54593 10.7386 10.1236C11.1695 10.7012 11.3968 11.357 11.4205 12.0909H9.71591ZM17.4982 23.2557C16.8069 23.2557 16.1796 23.1255 15.6161 22.8651C15.0527 22.5999 14.6052 22.2188 14.2738 21.7216C13.9424 21.2197 13.7766 20.6136 13.7766 19.9034C13.7766 19.2784 13.8997 18.7718 14.146 18.3835C14.3922 17.9905 14.7212 17.6828 15.1332 17.4602C15.5451 17.2377 15.9996 17.072 16.4968 16.9631C16.9987 16.8494 17.503 16.7595 18.0096 16.6932C18.6725 16.608 19.2099 16.544 19.6218 16.5014C20.0385 16.4541 20.3415 16.3759 20.5309 16.267C20.725 16.1581 20.8221 15.9687 20.8221 15.6989V15.642C20.8221 14.9413 20.6303 14.3968 20.2468 14.0085C19.868 13.6203 19.2927 13.4261 18.521 13.4261C17.7208 13.4261 17.0934 13.6013 16.6388 13.9517C16.1843 14.3021 15.8647 14.6761 15.68 15.0739L14.0891 14.5057C14.3732 13.8428 14.752 13.3267 15.2255 12.9574C15.7037 12.5833 16.2246 12.3229 16.788 12.1761C17.3562 12.0246 17.9149 11.9489 18.4641 11.9489C18.8145 11.9489 19.217 11.9915 19.6715 12.0767C20.1308 12.1572 20.5735 12.3253 20.9996 12.581C21.4305 12.8366 21.788 13.2225 22.0721 13.7386C22.3562 14.2547 22.4982 14.946 22.4982 15.8125V23H20.8221V21.5227H20.7369C20.6232 21.7595 20.4338 22.0128 20.1687 22.2827C19.9035 22.5526 19.5508 22.7822 19.1104 22.9716C18.6701 23.161 18.1327 23.2557 17.4982 23.2557ZM17.7539 21.75C18.4168 21.75 18.9755 21.6198 19.43 21.3594C19.8893 21.099 20.235 20.7628 20.467 20.3509C20.7037 19.9389 20.8221 19.5057 20.8221 19.0511V17.517C20.7511 17.6023 20.5948 17.6804 20.3533 17.7514C20.1166 17.8177 19.842 17.8769 19.5295 17.929C19.2217 17.9763 18.921 18.0189 18.6275 18.0568C18.3387 18.09 18.1043 18.1184 17.9244 18.142C17.4888 18.1989 17.0816 18.2912 16.7028 18.419C16.3287 18.5421 16.0257 18.7292 15.7937 18.9801C15.5664 19.2263 15.4528 19.5625 15.4528 19.9886C15.4528 20.571 15.6682 21.0114 16.0991 21.3097C16.5347 21.6032 17.0863 21.75 17.7539 21.75ZM30.3018 12.0909V13.5114H24.6484V12.0909H30.3018ZM26.2962 9.47727H27.9723V19.875C27.9723 20.3485 28.041 20.7036 28.1783 20.9403C28.3203 21.1723 28.5002 21.3286 28.718 21.4091C28.9406 21.4848 29.175 21.5227 29.4212 21.5227C29.6058 21.5227 29.7573 21.5133 29.8757 21.4943C29.9941 21.4706 30.0888 21.4517 30.1598 21.4375L30.5007 22.9432C30.3871 22.9858 30.2285 23.0284 30.0249 23.071C29.8213 23.1184 29.5632 23.142 29.2507 23.142C28.7772 23.142 28.3132 23.0402 27.8587 22.8366C27.4089 22.633 27.0348 22.3229 26.7365 21.9062C26.4429 21.4896 26.2962 20.964 26.2962 20.3295V9.47727Z" fill="black" fill-opacity="0.2"/>
<path d="M9.71591 12.0909C9.63068 11.3712 9.28504 10.8125 8.67898 10.4148C8.07292 10.017 7.32955 9.81818 6.44886 9.81818C5.80492 9.81818 5.24148 9.92235 4.75852 10.1307C4.2803 10.339 3.90625 10.6255 3.63636 10.9901C3.37121 11.3546 3.23864 11.7689 3.23864 12.233C3.23864 12.6212 3.33097 12.955 3.51562 13.2344C3.70502 13.509 3.9465 13.7386 4.24006 13.9233C4.53362 14.1032 4.84138 14.2524 5.16335 14.3707C5.48532 14.4844 5.78125 14.5767 6.05114 14.6477L7.52841 15.0455C7.9072 15.1449 8.3286 15.2822 8.79261 15.4574C9.26136 15.6326 9.70881 15.8717 10.1349 16.1747C10.5658 16.473 10.9209 16.8565 11.2003 17.3253C11.4796 17.794 11.6193 18.3693 11.6193 19.0511C11.6193 19.8371 11.4134 20.5473 11.0014 21.1818C10.5942 21.8163 9.99763 22.3205 9.21165 22.6946C8.4304 23.0687 7.48106 23.2557 6.36364 23.2557C5.32197 23.2557 4.41998 23.0876 3.65767 22.7514C2.90009 22.4152 2.3035 21.9465 1.8679 21.3452C1.43703 20.7438 1.19318 20.0455 1.13636 19.25H2.95455C3.00189 19.7992 3.18655 20.2538 3.50852 20.6136C3.83523 20.9687 4.24716 21.2339 4.74432 21.4091C5.24621 21.5795 5.78598 21.6648 6.36364 21.6648C7.03598 21.6648 7.63968 21.5559 8.17472 21.3381C8.70975 21.1155 9.13352 20.8078 9.44602 20.4148C9.75852 20.017 9.91477 19.553 9.91477 19.0227C9.91477 18.5398 9.77983 18.1468 9.50994 17.8438C9.24006 17.5407 8.88494 17.2945 8.4446 17.1051C8.00426 16.9157 7.52841 16.75 7.01705 16.608L5.22727 16.0966C4.09091 15.7699 3.19129 15.3035 2.52841 14.6974C1.86553 14.0914 1.53409 13.2983 1.53409 12.3182C1.53409 11.5038 1.75426 10.7936 2.1946 10.1875C2.63968 9.5767 3.23627 9.10322 3.98438 8.76705C4.73722 8.42614 5.57765 8.25568 6.50568 8.25568C7.44318 8.25568 8.27652 8.42377 9.00568 8.75994C9.73485 9.09138 10.3125 9.54593 10.7386 10.1236C11.1695 10.7012 11.3968 11.357 11.4205 12.0909H9.71591ZM17.4982 23.2557C16.8069 23.2557 16.1796 23.1255 15.6161 22.8651C15.0527 22.5999 14.6052 22.2188 14.2738 21.7216C13.9424 21.2197 13.7766 20.6136 13.7766 19.9034C13.7766 19.2784 13.8997 18.7718 14.146 18.3835C14.3922 17.9905 14.7212 17.6828 15.1332 17.4602C15.5451 17.2377 15.9996 17.072 16.4968 16.9631C16.9987 16.8494 17.503 16.7595 18.0096 16.6932C18.6725 16.608 19.2099 16.544 19.6218 16.5014C20.0385 16.4541 20.3415 16.3759 20.5309 16.267C20.725 16.1581 20.8221 15.9687 20.8221 15.6989V15.642C20.8221 14.9413 20.6303 14.3968 20.2468 14.0085C19.868 13.6203 19.2927 13.4261 18.521 13.4261C17.7208 13.4261 17.0934 13.6013 16.6388 13.9517C16.1843 14.3021 15.8647 14.6761 15.68 15.0739L14.0891 14.5057C14.3732 13.8428 14.752 13.3267 15.2255 12.9574C15.7037 12.5833 16.2246 12.3229 16.788 12.1761C17.3562 12.0246 17.9149 11.9489 18.4641 11.9489C18.8145 11.9489 19.217 11.9915 19.6715 12.0767C20.1308 12.1572 20.5735 12.3253 20.9996 12.581C21.4305 12.8366 21.788 13.2225 22.0721 13.7386C22.3562 14.2547 22.4982 14.946 22.4982 15.8125V23H20.8221V21.5227H20.7369C20.6232 21.7595 20.4338 22.0128 20.1687 22.2827C19.9035 22.5526 19.5508 22.7822 19.1104 22.9716C18.6701 23.161 18.1327 23.2557 17.4982 23.2557ZM17.7539 21.75C18.4168 21.75 18.9755 21.6198 19.43 21.3594C19.8893 21.099 20.235 20.7628 20.467 20.3509C20.7037 19.9389 20.8221 19.5057 20.8221 19.0511V17.517C20.7511 17.6023 20.5948 17.6804 20.3533 17.7514C20.1166 17.8177 19.842 17.8769 19.5295 17.929C19.2217 17.9763 18.921 18.0189 18.6275 18.0568C18.3387 18.09 18.1043 18.1184 17.9244 18.142C17.4888 18.1989 17.0816 18.2912 16.7028 18.419C16.3287 18.5421 16.0257 18.7292 15.7937 18.9801C15.5664 19.2263 15.4528 19.5625 15.4528 19.9886C15.4528 20.571 15.6682 21.0114 16.0991 21.3097C16.5347 21.6032 17.0863 21.75 17.7539 21.75ZM30.3018 12.0909V13.5114H24.6484V12.0909H30.3018ZM26.2962 9.47727H27.9723V19.875C27.9723 20.3485 28.041 20.7036 28.1783 20.9403C28.3203 21.1723 28.5002 21.3286 28.718 21.4091C28.9406 21.4848 29.175 21.5227 29.4212 21.5227C29.6058 21.5227 29.7573 21.5133 29.8757 21.4943C29.9941 21.4706 30.0888 21.4517 30.1598 21.4375L30.5007 22.9432C30.3871 22.9858 30.2285 23.0284 30.0249 23.071C29.8213 23.1184 29.5632 23.142 29.2507 23.142C28.7772 23.142 28.3132 23.0402 27.8587 22.8366C27.4089 22.633 27.0348 22.3229 26.7365 21.9062C26.4429 21.4896 26.2962 20.964 26.2962 20.3295V9.47727Z" fill="black" fill-opacity="0.2"/>
<path fill-rule="evenodd" clip-rule="evenodd" d="M55.9668 4.80065C54.0801 3.65784 51.8669 3 49.5 3C42.5964 3 37 8.59644 37 15.5C37 17.0462 37.2808 18.5269 37.7941 19.8938C38.1322 18.9989 38.5784 18.1863 39.1326 17.4561C40.5543 15.5643 42.7151 14.1592 45.6149 13.2409L50.4291 11.698C52.3435 11.0736 53.7511 10.293 54.652 9.35626C55.5529 8.41955 56.0034 7.14305 56.0034 5.52676C56.0034 5.27874 55.9912 5.03671 55.9668 4.80065ZM42.1778 25.6321C42.1606 25.4354 42.152 25.2355 42.152 25.0324C42.152 23.5631 42.5462 22.3325 43.3345 21.3407C44.1227 20.3305 45.3333 19.5775 46.9662 19.0815L52.3716 17.4285C55.3418 16.5102 57.5236 15.0867 58.9172 13.1582C59.6534 12.1193 60.1931 10.9417 60.5364 9.62558C61.4705 11.3768 62 13.3766 62 15.5C62 19.273 60.3284 22.6555 57.6854 24.9474L57.2703 24.812C57.2313 25.0093 57.1892 25.2023 57.1442 25.391C55.0309 27.0266 52.3791 28 49.5 28C46.7653 28 44.2357 27.1218 42.1778 25.6321Z" fill="#29A173"/>
<path fill-rule="evenodd" clip-rule="evenodd" d="M55.9668 4.80065C54.0801 3.65784 51.8669 3 49.5 3C42.5964 3 37 8.59644 37 15.5C37 17.0462 37.2808 18.5269 37.7941 19.8938C38.1322 18.9989 38.5784 18.1863 39.1326 17.4561C40.5543 15.5643 42.7151 14.1592 45.6149 13.2409L50.4291 11.698C52.3435 11.0736 53.7511 10.293 54.652 9.35626C55.5529 8.41955 56.0034 7.14305 56.0034 5.52676C56.0034 5.27874 55.9912 5.03671 55.9668 4.80065ZM42.1778 25.6321C42.1606 25.4354 42.152 25.2355 42.152 25.0324C42.152 23.5631 42.5462 22.3325 43.3345 21.3407C44.1227 20.3305 45.3333 19.5775 46.9662 19.0815L52.3716 17.4285C55.3418 16.5102 57.5236 15.0867 58.9172 13.1582C59.6534 12.1193 60.1931 10.9417 60.5364 9.62558C61.4705 11.3768 62 13.3766 62 15.5C62 19.273 60.3284 22.6555 57.6854 24.9474L57.2703 24.812C57.2313 25.0093 57.1892 25.2023 57.1442 25.391C55.0309 27.0266 52.3791 28 49.5 28C46.7653 28 44.2357 27.1218 42.1778 25.6321Z" fill="black" fill-opacity="0.2"/>
<path fill-rule="evenodd" clip-rule="evenodd" d="M55.9668 4.80065C54.0801 3.65784 51.8669 3 49.5 3C42.5964 3 37 8.59644 37 15.5C37 17.0462 37.2808 18.5269 37.7941 19.8938C38.1322 18.9989 38.5784 18.1863 39.1326 17.4561C40.5543 15.5643 42.7151 14.1592 45.6149 13.2409L50.4291 11.698C52.3435 11.0736 53.7511 10.293 54.652 9.35626C55.5529 8.41955 56.0034 7.14305 56.0034 5.52676C56.0034 5.27874 55.9912 5.03671 55.9668 4.80065ZM42.1778 25.6321C42.1606 25.4354 42.152 25.2355 42.152 25.0324C42.152 23.5631 42.5462 22.3325 43.3345 21.3407C44.1227 20.3305 45.3333 19.5775 46.9662 19.0815L52.3716 17.4285C55.3418 16.5102 57.5236 15.0867 58.9172 13.1582C59.6534 12.1193 60.1931 10.9417 60.5364 9.62558C61.4705 11.3768 62 13.3766 62 15.5C62 19.273 60.3284 22.6555 57.6854 24.9474L57.2703 24.812C57.2313 25.0093 57.1892 25.2023 57.1442 25.391C55.0309 27.0266 52.3791 28 49.5 28C46.7653 28 44.2357 27.1218 42.1778 25.6321Z" fill="black" fill-opacity="0.2"/>
<path d="M71.7443 23.2557C71.053 23.2557 70.4257 23.1255 69.8622 22.8651C69.2988 22.5999 68.8513 22.2188 68.5199 21.7216C68.1884 21.2197 68.0227 20.6136 68.0227 19.9034C68.0227 19.2784 68.1458 18.7718 68.392 18.3835C68.6383 17.9905 68.9673 17.6828 69.3793 17.4602C69.7912 17.2377 70.2457 17.072 70.7429 16.9631C71.2448 16.8494 71.7491 16.7595 72.2557 16.6932C72.9186 16.608 73.456 16.544 73.8679 16.5014C74.2846 16.4541 74.5876 16.3759 74.777 16.267C74.9711 16.1581 75.0682 15.9687 75.0682 15.6989V15.642C75.0682 14.9413 74.8764 14.3968 74.4929 14.0085C74.1141 13.6203 73.5388 13.4261 72.767 13.4261C71.9669 13.4261 71.3395 13.6013 70.8849 13.9517C70.4304 14.3021 70.1108 14.6761 69.9261 15.0739L68.3352 14.5057C68.6193 13.8428 68.9981 13.3267 69.4716 12.9574C69.9498 12.5833 70.4706 12.3229 71.0341 12.1761C71.6023 12.0246 72.161 11.9489 72.7102 11.9489C73.0606 11.9489 73.4631 11.9915 73.9176 12.0767C74.3769 12.1572 74.8196 12.3253 75.2457 12.581C75.6766 12.8366 76.0341 13.2225 76.3182 13.7386C76.6023 14.2547 76.7443 14.946 76.7443 15.8125V23H75.0682V21.5227H74.983C74.8693 21.7595 74.6799 22.0128 74.4148 22.2827C74.1496 22.5526 73.7969 22.7822 73.3565 22.9716C72.9162 23.161 72.3788 23.2557 71.7443 23.2557ZM72 21.75C72.6629 21.75 73.2216 21.6198 73.6761 21.3594C74.1354 21.099 74.4811 20.7628 74.7131 20.3509C74.9498 19.9389 75.0682 19.5057 75.0682 19.0511V17.517C74.9972 17.6023 74.8409 17.6804 74.5994 17.7514C74.3627 17.8177 74.0881 17.8769 73.7756 17.929C73.4678 17.9763 73.1671 18.0189 72.8736 18.0568C72.5848 18.09 72.3504 18.1184 72.1705 18.142C71.7348 18.1989 71.3277 18.2912 70.9489 18.419C70.5748 18.5421 70.2718 18.7292 70.0398 18.9801C69.8125 19.2263 69.6989 19.5625 69.6989 19.9886C69.6989 20.571 69.9143 21.0114 70.3452 21.3097C70.7808 21.6032 71.3324 21.75 72 21.75ZM84.5479 12.0909V13.5114H78.8945V12.0909H84.5479ZM80.5423 9.47727H82.2184V19.875C82.2184 20.3485 82.2871 20.7036 82.4244 20.9403C82.5664 21.1723 82.7463 21.3286 82.9641 21.4091C83.1867 21.4848 83.421 21.5227 83.6673 21.5227C83.8519 21.5227 84.0034 21.5133 84.1218 21.4943C84.2402 21.4706 84.3349 21.4517 84.4059 21.4375L84.7468 22.9432C84.6332 22.9858 84.4746 23.0284 84.271 23.071C84.0674 23.1184 83.8093 23.142 83.4968 23.142C83.0233 23.142 82.5593 23.0402 82.1048 22.8366C81.6549 22.633 81.2809 22.3229 80.9826 21.9062C80.689 21.4896 80.5423 20.964 80.5423 20.3295V9.47727ZM87.8931 23H86.0465L91.3874 8.45455H93.2056L98.5465 23H96.6999L92.3533 10.7557H92.2397L87.8931 23ZM88.5749 17.3182H96.0181V18.8807H88.5749V17.3182ZM100.702 23V12.0909H102.378V23H100.702ZM101.554 10.2727C101.228 10.2727 100.946 10.1615 100.709 9.93892C100.477 9.71638 100.361 9.44886 100.361 9.13636C100.361 8.82386 100.477 8.55634 100.709 8.33381C100.946 8.11127 101.228 8 101.554 8C101.881 8 102.16 8.11127 102.392 8.33381C102.629 8.55634 102.748 8.82386 102.748 9.13636C102.748 9.44886 102.629 9.71638 102.392 9.93892C102.16 10.1615 101.881 10.2727 101.554 10.2727Z" fill="white"/>
<path d="M71.7443 23.2557C71.053 23.2557 70.4257 23.1255 69.8622 22.8651C69.2988 22.5999 68.8513 22.2188 68.5199 21.7216C68.1884 21.2197 68.0227 20.6136 68.0227 19.9034C68.0227 19.2784 68.1458 18.7718 68.392 18.3835C68.6383 17.9905 68.9673 17.6828 69.3793 17.4602C69.7912 17.2377 70.2457 17.072 70.7429 16.9631C71.2448 16.8494 71.7491 16.7595 72.2557 16.6932C72.9186 16.608 73.456 16.544 73.8679 16.5014C74.2846 16.4541 74.5876 16.3759 74.777 16.267C74.9711 16.1581 75.0682 15.9687 75.0682 15.6989V15.642C75.0682 14.9413 74.8764 14.3968 74.4929 14.0085C74.1141 13.6203 73.5388 13.4261 72.767 13.4261C71.9669 13.4261 71.3395 13.6013 70.8849 13.9517C70.4304 14.3021 70.1108 14.6761 69.9261 15.0739L68.3352 14.5057C68.6193 13.8428 68.9981 13.3267 69.4716 12.9574C69.9498 12.5833 70.4706 12.3229 71.0341 12.1761C71.6023 12.0246 72.161 11.9489 72.7102 11.9489C73.0606 11.9489 73.4631 11.9915 73.9176 12.0767C74.3769 12.1572 74.8196 12.3253 75.2457 12.581C75.6766 12.8366 76.0341 13.2225 76.3182 13.7386C76.6023 14.2547 76.7443 14.946 76.7443 15.8125V23H75.0682V21.5227H74.983C74.8693 21.7595 74.6799 22.0128 74.4148 22.2827C74.1496 22.5526 73.7969 22.7822 73.3565 22.9716C72.9162 23.161 72.3788 23.2557 71.7443 23.2557ZM72 21.75C72.6629 21.75 73.2216 21.6198 73.6761 21.3594C74.1354 21.099 74.4811 20.7628 74.7131 20.3509C74.9498 19.9389 75.0682 19.5057 75.0682 19.0511V17.517C74.9972 17.6023 74.8409 17.6804 74.5994 17.7514C74.3627 17.8177 74.0881 17.8769 73.7756 17.929C73.4678 17.9763 73.1671 18.0189 72.8736 18.0568C72.5848 18.09 72.3504 18.1184 72.1705 18.142C71.7348 18.1989 71.3277 18.2912 70.9489 18.419C70.5748 18.5421 70.2718 18.7292 70.0398 18.9801C69.8125 19.2263 69.6989 19.5625 69.6989 19.9886C69.6989 20.571 69.9143 21.0114 70.3452 21.3097C70.7808 21.6032 71.3324 21.75 72 21.75ZM84.5479 12.0909V13.5114H78.8945V12.0909H84.5479ZM80.5423 9.47727H82.2184V19.875C82.2184 20.3485 82.2871 20.7036 82.4244 20.9403C82.5664 21.1723 82.7463 21.3286 82.9641 21.4091C83.1867 21.4848 83.421 21.5227 83.6673 21.5227C83.8519 21.5227 84.0034 21.5133 84.1218 21.4943C84.2402 21.4706 84.3349 21.4517 84.4059 21.4375L84.7468 22.9432C84.6332 22.9858 84.4746 23.0284 84.271 23.071C84.0674 23.1184 83.8093 23.142 83.4968 23.142C83.0233 23.142 82.5593 23.0402 82.1048 22.8366C81.6549 22.633 81.2809 22.3229 80.9826 21.9062C80.689 21.4896 80.5423 20.964 80.5423 20.3295V9.47727ZM87.8931 23H86.0465L91.3874 8.45455H93.2056L98.5465 23H96.6999L92.3533 10.7557H92.2397L87.8931 23ZM88.5749 17.3182H96.0181V18.8807H88.5749V17.3182ZM100.702 23V12.0909H102.378V23H100.702ZM101.554 10.2727C101.228 10.2727 100.946 10.1615 100.709 9.93892C100.477 9.71638 100.361 9.44886 100.361 9.13636C100.361 8.82386 100.477 8.55634 100.709 8.33381C100.946 8.11127 101.228 8 101.554 8C101.881 8 102.16 8.11127 102.392 8.33381C102.629 8.55634 102.748 8.82386 102.748 9.13636C102.748 9.44886 102.629 9.71638 102.392 9.93892C102.16 10.1615 101.881 10.2727 101.554 10.2727Z" fill="black" fill-opacity="0.2"/>
<path d="M71.7443 23.2557C71.053 23.2557 70.4257 23.1255 69.8622 22.8651C69.2988 22.5999 68.8513 22.2188 68.5199 21.7216C68.1884 21.2197 68.0227 20.6136 68.0227 19.9034C68.0227 19.2784 68.1458 18.7718 68.392 18.3835C68.6383 17.9905 68.9673 17.6828 69.3793 17.4602C69.7912 17.2377 70.2457 17.072 70.7429 16.9631C71.2448 16.8494 71.7491 16.7595 72.2557 16.6932C72.9186 16.608 73.456 16.544 73.8679 16.5014C74.2846 16.4541 74.5876 16.3759 74.777 16.267C74.9711 16.1581 75.0682 15.9687 75.0682 15.6989V15.642C75.0682 14.9413 74.8764 14.3968 74.4929 14.0085C74.1141 13.6203 73.5388 13.4261 72.767 13.4261C71.9669 13.4261 71.3395 13.6013 70.8849 13.9517C70.4304 14.3021 70.1108 14.6761 69.9261 15.0739L68.3352 14.5057C68.6193 13.8428 68.9981 13.3267 69.4716 12.9574C69.9498 12.5833 70.4706 12.3229 71.0341 12.1761C71.6023 12.0246 72.161 11.9489 72.7102 11.9489C73.0606 11.9489 73.4631 11.9915 73.9176 12.0767C74.3769 12.1572 74.8196 12.3253 75.2457 12.581C75.6766 12.8366 76.0341 13.2225 76.3182 13.7386C76.6023 14.2547 76.7443 14.946 76.7443 15.8125V23H75.0682V21.5227H74.983C74.8693 21.7595 74.6799 22.0128 74.4148 22.2827C74.1496 22.5526 73.7969 22.7822 73.3565 22.9716C72.9162 23.161 72.3788 23.2557 71.7443 23.2557ZM72 21.75C72.6629 21.75 73.2216 21.6198 73.6761 21.3594C74.1354 21.099 74.4811 20.7628 74.7131 20.3509C74.9498 19.9389 75.0682 19.5057 75.0682 19.0511V17.517C74.9972 17.6023 74.8409 17.6804 74.5994 17.7514C74.3627 17.8177 74.0881 17.8769 73.7756 17.929C73.4678 17.9763 73.1671 18.0189 72.8736 18.0568C72.5848 18.09 72.3504 18.1184 72.1705 18.142C71.7348 18.1989 71.3277 18.2912 70.9489 18.419C70.5748 18.5421 70.2718 18.7292 70.0398 18.9801C69.8125 19.2263 69.6989 19.5625 69.6989 19.9886C69.6989 20.571 69.9143 21.0114 70.3452 21.3097C70.7808 21.6032 71.3324 21.75 72 21.75ZM84.5479 12.0909V13.5114H78.8945V12.0909H84.5479ZM80.5423 9.47727H82.2184V19.875C82.2184 20.3485 82.2871 20.7036 82.4244 20.9403C82.5664 21.1723 82.7463 21.3286 82.9641 21.4091C83.1867 21.4848 83.421 21.5227 83.6673 21.5227C83.8519 21.5227 84.0034 21.5133 84.1218 21.4943C84.2402 21.4706 84.3349 21.4517 84.4059 21.4375L84.7468 22.9432C84.6332 22.9858 84.4746 23.0284 84.271 23.071C84.0674 23.1184 83.8093 23.142 83.4968 23.142C83.0233 23.142 82.5593 23.0402 82.1048 22.8366C81.6549 22.633 81.2809 22.3229 80.9826 21.9062C80.689 21.4896 80.5423 20.964 80.5423 20.3295V9.47727ZM87.8931 23H86.0465L91.3874 8.45455H93.2056L98.5465 23H96.6999L92.3533 10.7557H92.2397L87.8931 23ZM88.5749 17.3182H96.0181V18.8807H88.5749V17.3182ZM100.702 23V12.0909H102.378V23H100.702ZM101.554 10.2727C101.228 10.2727 100.946 10.1615 100.709 9.93892C100.477 9.71638 100.361 9.44886 100.361 9.13636C100.361 8.82386 100.477 8.55634 100.709 8.33381C100.946 8.11127 101.228 8 101.554 8C101.881 8 102.16 8.11127 102.392 8.33381C102.629 8.55634 102.748 8.82386 102.748 9.13636C102.748 9.44886 102.629 9.71638 102.392 9.93892C102.16 10.1615 101.881 10.2727 101.554 10.2727Z" fill="black" fill-opacity="0.2"/>
</svg>
