<svg width="118" height="38" viewBox="0 0 118 38" fill="none" xmlns="http://www.w3.org/2000/svg">
<path d="M11.6591 14.9091C11.5568 14.0455 11.142 13.375 10.4148 12.8977C9.6875 12.4205 8.79545 12.1818 7.73864 12.1818C6.96591 12.1818 6.28977 12.3068 5.71023 12.5568C5.13636 12.8068 4.6875 13.1506 4.36364 13.5881C4.04545 14.0256 3.88636 14.5227 3.88636 15.0795C3.88636 15.5455 3.99716 15.946 4.21875 16.2812C4.44602 16.6108 4.7358 16.8864 5.08807 17.108C5.44034 17.3239 5.80966 17.5028 6.19602 17.6449C6.58239 17.7812 6.9375 17.892 7.26136 17.9773L9.03409 18.4545C9.48864 18.5739 9.99432 18.7386 10.5511 18.9489C11.1136 19.1591 11.6506 19.446 12.1619 19.8097C12.679 20.1676 13.1051 20.6278 13.4403 21.1903C13.7756 21.7528 13.9432 22.4432 13.9432 23.2614C13.9432 24.2045 13.696 25.0568 13.2017 25.8182C12.7131 26.5795 11.9972 27.1847 11.054 27.6335C10.1165 28.0824 8.97727 28.3068 7.63636 28.3068C6.38636 28.3068 5.30398 28.1051 4.3892 27.7017C3.48011 27.2983 2.7642 26.7358 2.24148 26.0142C1.72443 25.2926 1.43182 24.4545 1.36364 23.5H3.54545C3.60227 24.1591 3.82386 24.7045 4.21023 25.1364C4.60227 25.5625 5.09659 25.8807 5.69318 26.0909C6.29545 26.2955 6.94318 26.3977 7.63636 26.3977C8.44318 26.3977 9.16761 26.267 9.80966 26.0057C10.4517 25.7386 10.9602 25.3693 11.3352 24.8977C11.7102 24.4205 11.8977 23.8636 11.8977 23.2273C11.8977 22.6477 11.7358 22.1761 11.4119 21.8125C11.0881 21.4489 10.6619 21.1534 10.1335 20.9261C9.60511 20.6989 9.03409 20.5 8.42045 20.3295L6.27273 19.7159C4.90909 19.3239 3.82955 18.7642 3.03409 18.0369C2.23864 17.3097 1.84091 16.358 1.84091 15.1818C1.84091 14.2045 2.10511 13.3523 2.63352 12.625C3.16761 11.892 3.88352 11.3239 4.78125 10.9205C5.68466 10.5114 6.69318 10.3068 7.80682 10.3068C8.93182 10.3068 9.93182 10.5085 10.8068 10.9119C11.6818 11.3097 12.375 11.8551 12.8864 12.5483C13.4034 13.2415 13.6761 14.0284 13.7045 14.9091H11.6591ZM20.9979 28.3068C20.1683 28.3068 19.4155 28.1506 18.7393 27.8381C18.0632 27.5199 17.5263 27.0625 17.1286 26.4659C16.7308 25.8636 16.532 25.1364 16.532 24.2841C16.532 23.5341 16.6797 22.9261 16.9751 22.4602C17.2706 21.9886 17.6655 21.6193 18.1598 21.3523C18.6541 21.0852 19.1996 20.8864 19.7962 20.7557C20.3984 20.6193 21.0036 20.5114 21.6115 20.4318C22.407 20.3295 23.0518 20.2528 23.5462 20.2017C24.0462 20.1449 24.4098 20.0511 24.6371 19.9205C24.87 19.7898 24.9865 19.5625 24.9865 19.2386V19.1705C24.9865 18.3295 24.7564 17.6761 24.2962 17.2102C23.8416 16.7443 23.1513 16.5114 22.2251 16.5114C21.2649 16.5114 20.5121 16.7216 19.9666 17.142C19.4212 17.5625 19.0376 18.0114 18.8161 18.4886L16.907 17.8068C17.2479 17.0114 17.7024 16.392 18.2706 15.9489C18.8445 15.5 19.4695 15.1875 20.1456 15.0114C20.8274 14.8295 21.4979 14.7386 22.157 14.7386C22.5774 14.7386 23.0604 14.7898 23.6058 14.892C24.157 14.9886 24.6882 15.1903 25.1996 15.4972C25.7166 15.804 26.1456 16.267 26.4865 16.8864C26.8274 17.5057 26.9979 18.3352 26.9979 19.375V28H24.9865V26.2273H24.8842C24.7479 26.5114 24.5206 26.8153 24.2024 27.1392C23.8842 27.4631 23.4609 27.7386 22.9325 27.9659C22.4041 28.1932 21.7592 28.3068 20.9979 28.3068ZM21.3047 26.5C22.1001 26.5 22.7706 26.3438 23.3161 26.0312C23.8672 25.7188 24.282 25.3153 24.5604 24.821C24.8445 24.3267 24.9865 23.8068 24.9865 23.2614V21.4205C24.9013 21.5227 24.7138 21.6165 24.424 21.7017C24.1399 21.7812 23.8104 21.8523 23.4354 21.9148C23.0661 21.9716 22.7053 22.0227 22.353 22.0682C22.0064 22.108 21.7251 22.142 21.5092 22.1705C20.9865 22.2386 20.4979 22.3494 20.0433 22.5028C19.5945 22.6506 19.2308 22.875 18.9524 23.1761C18.6797 23.4716 18.5433 23.875 18.5433 24.3864C18.5433 25.0852 18.8018 25.6136 19.3189 25.9716C19.8416 26.3239 20.5036 26.5 21.3047 26.5ZM36.3622 14.9091V16.6136H29.5781V14.9091H36.3622ZM31.5554 11.7727H33.5668V24.25C33.5668 24.8182 33.6491 25.2443 33.8139 25.5284C33.9844 25.8068 34.2003 25.9943 34.4616 26.0909C34.7287 26.1818 35.0099 26.2273 35.3054 26.2273C35.527 26.2273 35.7088 26.2159 35.8509 26.1932C35.9929 26.1648 36.1065 26.142 36.1918 26.125L36.6009 27.9318C36.4645 27.983 36.2741 28.0341 36.0298 28.0852C35.7855 28.142 35.4759 28.1705 35.1009 28.1705C34.5327 28.1705 33.9759 28.0483 33.4304 27.804C32.8906 27.5597 32.4418 27.1875 32.0838 26.6875C31.7315 26.1875 31.5554 25.5568 31.5554 24.7955V11.7727Z" fill="#0F0F0F"/>
<path d="M11.6591 14.9091C11.5568 14.0455 11.142 13.375 10.4148 12.8977C9.6875 12.4205 8.79545 12.1818 7.73864 12.1818C6.96591 12.1818 6.28977 12.3068 5.71023 12.5568C5.13636 12.8068 4.6875 13.1506 4.36364 13.5881C4.04545 14.0256 3.88636 14.5227 3.88636 15.0795C3.88636 15.5455 3.99716 15.946 4.21875 16.2812C4.44602 16.6108 4.7358 16.8864 5.08807 17.108C5.44034 17.3239 5.80966 17.5028 6.19602 17.6449C6.58239 17.7812 6.9375 17.892 7.26136 17.9773L9.03409 18.4545C9.48864 18.5739 9.99432 18.7386 10.5511 18.9489C11.1136 19.1591 11.6506 19.446 12.1619 19.8097C12.679 20.1676 13.1051 20.6278 13.4403 21.1903C13.7756 21.7528 13.9432 22.4432 13.9432 23.2614C13.9432 24.2045 13.696 25.0568 13.2017 25.8182C12.7131 26.5795 11.9972 27.1847 11.054 27.6335C10.1165 28.0824 8.97727 28.3068 7.63636 28.3068C6.38636 28.3068 5.30398 28.1051 4.3892 27.7017C3.48011 27.2983 2.7642 26.7358 2.24148 26.0142C1.72443 25.2926 1.43182 24.4545 1.36364 23.5H3.54545C3.60227 24.1591 3.82386 24.7045 4.21023 25.1364C4.60227 25.5625 5.09659 25.8807 5.69318 26.0909C6.29545 26.2955 6.94318 26.3977 7.63636 26.3977C8.44318 26.3977 9.16761 26.267 9.80966 26.0057C10.4517 25.7386 10.9602 25.3693 11.3352 24.8977C11.7102 24.4205 11.8977 23.8636 11.8977 23.2273C11.8977 22.6477 11.7358 22.1761 11.4119 21.8125C11.0881 21.4489 10.6619 21.1534 10.1335 20.9261C9.60511 20.6989 9.03409 20.5 8.42045 20.3295L6.27273 19.7159C4.90909 19.3239 3.82955 18.7642 3.03409 18.0369C2.23864 17.3097 1.84091 16.358 1.84091 15.1818C1.84091 14.2045 2.10511 13.3523 2.63352 12.625C3.16761 11.892 3.88352 11.3239 4.78125 10.9205C5.68466 10.5114 6.69318 10.3068 7.80682 10.3068C8.93182 10.3068 9.93182 10.5085 10.8068 10.9119C11.6818 11.3097 12.375 11.8551 12.8864 12.5483C13.4034 13.2415 13.6761 14.0284 13.7045 14.9091H11.6591ZM20.9979 28.3068C20.1683 28.3068 19.4155 28.1506 18.7393 27.8381C18.0632 27.5199 17.5263 27.0625 17.1286 26.4659C16.7308 25.8636 16.532 25.1364 16.532 24.2841C16.532 23.5341 16.6797 22.9261 16.9751 22.4602C17.2706 21.9886 17.6655 21.6193 18.1598 21.3523C18.6541 21.0852 19.1996 20.8864 19.7962 20.7557C20.3984 20.6193 21.0036 20.5114 21.6115 20.4318C22.407 20.3295 23.0518 20.2528 23.5462 20.2017C24.0462 20.1449 24.4098 20.0511 24.6371 19.9205C24.87 19.7898 24.9865 19.5625 24.9865 19.2386V19.1705C24.9865 18.3295 24.7564 17.6761 24.2962 17.2102C23.8416 16.7443 23.1513 16.5114 22.2251 16.5114C21.2649 16.5114 20.5121 16.7216 19.9666 17.142C19.4212 17.5625 19.0376 18.0114 18.8161 18.4886L16.907 17.8068C17.2479 17.0114 17.7024 16.392 18.2706 15.9489C18.8445 15.5 19.4695 15.1875 20.1456 15.0114C20.8274 14.8295 21.4979 14.7386 22.157 14.7386C22.5774 14.7386 23.0604 14.7898 23.6058 14.892C24.157 14.9886 24.6882 15.1903 25.1996 15.4972C25.7166 15.804 26.1456 16.267 26.4865 16.8864C26.8274 17.5057 26.9979 18.3352 26.9979 19.375V28H24.9865V26.2273H24.8842C24.7479 26.5114 24.5206 26.8153 24.2024 27.1392C23.8842 27.4631 23.4609 27.7386 22.9325 27.9659C22.4041 28.1932 21.7592 28.3068 20.9979 28.3068ZM21.3047 26.5C22.1001 26.5 22.7706 26.3438 23.3161 26.0312C23.8672 25.7188 24.282 25.3153 24.5604 24.821C24.8445 24.3267 24.9865 23.8068 24.9865 23.2614V21.4205C24.9013 21.5227 24.7138 21.6165 24.424 21.7017C24.1399 21.7812 23.8104 21.8523 23.4354 21.9148C23.0661 21.9716 22.7053 22.0227 22.353 22.0682C22.0064 22.108 21.7251 22.142 21.5092 22.1705C20.9865 22.2386 20.4979 22.3494 20.0433 22.5028C19.5945 22.6506 19.2308 22.875 18.9524 23.1761C18.6797 23.4716 18.5433 23.875 18.5433 24.3864C18.5433 25.0852 18.8018 25.6136 19.3189 25.9716C19.8416 26.3239 20.5036 26.5 21.3047 26.5ZM36.3622 14.9091V16.6136H29.5781V14.9091H36.3622ZM31.5554 11.7727H33.5668V24.25C33.5668 24.8182 33.6491 25.2443 33.8139 25.5284C33.9844 25.8068 34.2003 25.9943 34.4616 26.0909C34.7287 26.1818 35.0099 26.2273 35.3054 26.2273C35.527 26.2273 35.7088 26.2159 35.8509 26.1932C35.9929 26.1648 36.1065 26.142 36.1918 26.125L36.6009 27.9318C36.4645 27.983 36.2741 28.0341 36.0298 28.0852C35.7855 28.142 35.4759 28.1705 35.1009 28.1705C34.5327 28.1705 33.9759 28.0483 33.4304 27.804C32.8906 27.5597 32.4418 27.1875 32.0838 26.6875C31.7315 26.1875 31.5554 25.5568 31.5554 24.7955V11.7727Z" fill="white"/>
<path fill-rule="evenodd" clip-rule="evenodd" d="M61.9668 8.30065C60.0801 7.15784 57.8669 6.5 55.5 6.5C48.5964 6.5 43 12.0964 43 19C43 20.5462 43.2808 22.0269 43.7941 23.3938C44.1322 22.4989 44.5784 21.6863 45.1326 20.9561C46.5543 19.0643 48.7151 17.6592 51.6149 16.7409L56.4291 15.198C58.3435 14.5736 59.7511 13.793 60.652 12.8563C61.5529 11.9196 62.0034 10.643 62.0034 9.02676C62.0034 8.77874 61.9912 8.53671 61.9668 8.30065ZM48.1778 29.1321C48.1606 28.9354 48.152 28.7355 48.152 28.5324C48.152 27.0631 48.5462 25.8325 49.3345 24.8407C50.1227 23.8305 51.3333 23.0775 52.9662 22.5815L58.3716 20.9285C61.3418 20.0102 63.5236 18.5867 64.9172 16.6582C65.6534 15.6193 66.1931 14.4417 66.5364 13.1256C67.4705 14.8768 68 16.8766 68 19C68 22.773 66.3284 26.1555 63.6854 28.4474L63.2703 28.312C63.2313 28.5093 63.1892 28.7023 63.1442 28.891C61.0309 30.5266 58.3791 31.5 55.5 31.5C52.7653 31.5 50.2357 30.6218 48.1778 29.1321Z" fill="#29A173"/>
<path fill-rule="evenodd" clip-rule="evenodd" d="M61.9668 8.30065C60.0801 7.15784 57.8669 6.5 55.5 6.5C48.5964 6.5 43 12.0964 43 19C43 20.5462 43.2808 22.0269 43.7941 23.3938C44.1322 22.4989 44.5784 21.6863 45.1326 20.9561C46.5543 19.0643 48.7151 17.6592 51.6149 16.7409L56.4291 15.198C58.3435 14.5736 59.7511 13.793 60.652 12.8563C61.5529 11.9196 62.0034 10.643 62.0034 9.02676C62.0034 8.77874 61.9912 8.53671 61.9668 8.30065ZM48.1778 29.1321C48.1606 28.9354 48.152 28.7355 48.152 28.5324C48.152 27.0631 48.5462 25.8325 49.3345 24.8407C50.1227 23.8305 51.3333 23.0775 52.9662 22.5815L58.3716 20.9285C61.3418 20.0102 63.5236 18.5867 64.9172 16.6582C65.6534 15.6193 66.1931 14.4417 66.5364 13.1256C67.4705 14.8768 68 16.8766 68 19C68 22.773 66.3284 26.1555 63.6854 28.4474L63.2703 28.312C63.2313 28.5093 63.1892 28.7023 63.1442 28.891C61.0309 30.5266 58.3791 31.5 55.5 31.5C52.7653 31.5 50.2357 30.6218 48.1778 29.1321Z" fill="black" fill-opacity="0.2"/>
<path fill-rule="evenodd" clip-rule="evenodd" d="M61.9668 8.30065C60.0801 7.15784 57.8669 6.5 55.5 6.5C48.5964 6.5 43 12.0964 43 19C43 20.5462 43.2808 22.0269 43.7941 23.3938C44.1322 22.4989 44.5784 21.6863 45.1326 20.9561C46.5543 19.0643 48.7151 17.6592 51.6149 16.7409L56.4291 15.198C58.3435 14.5736 59.7511 13.793 60.652 12.8563C61.5529 11.9196 62.0034 10.643 62.0034 9.02676C62.0034 8.77874 61.9912 8.53671 61.9668 8.30065ZM48.1778 29.1321C48.1606 28.9354 48.152 28.7355 48.152 28.5324C48.152 27.0631 48.5462 25.8325 49.3345 24.8407C50.1227 23.8305 51.3333 23.0775 52.9662 22.5815L58.3716 20.9285C61.3418 20.0102 63.5236 18.5867 64.9172 16.6582C65.6534 15.6193 66.1931 14.4417 66.5364 13.1256C67.4705 14.8768 68 16.8766 68 19C68 22.773 66.3284 26.1555 63.6854 28.4474L63.2703 28.312C63.2313 28.5093 63.1892 28.7023 63.1442 28.891C61.0309 30.5266 58.3791 31.5 55.5 31.5C52.7653 31.5 50.2357 30.6218 48.1778 29.1321Z" fill="black" fill-opacity="0.2"/>
<path d="M78.6932 28.3068C77.8636 28.3068 77.1108 28.1506 76.4347 27.8381C75.7585 27.5199 75.2216 27.0625 74.8239 26.4659C74.4261 25.8636 74.2273 25.1364 74.2273 24.2841C74.2273 23.5341 74.375 22.9261 74.6705 22.4602C74.9659 21.9886 75.3608 21.6193 75.8551 21.3523C76.3494 21.0852 76.8949 20.8864 77.4915 20.7557C78.0938 20.6193 78.6989 20.5114 79.3068 20.4318C80.1023 20.3295 80.7472 20.2528 81.2415 20.2017C81.7415 20.1449 82.1051 20.0511 82.3324 19.9205C82.5653 19.7898 82.6818 19.5625 82.6818 19.2386V19.1705C82.6818 18.3295 82.4517 17.6761 81.9915 17.2102C81.5369 16.7443 80.8466 16.5114 79.9205 16.5114C78.9602 16.5114 78.2074 16.7216 77.6619 17.142C77.1165 17.5625 76.733 18.0114 76.5114 18.4886L74.6023 17.8068C74.9432 17.0114 75.3977 16.392 75.9659 15.9489C76.5398 15.5 77.1648 15.1875 77.8409 15.0114C78.5227 14.8295 79.1932 14.7386 79.8523 14.7386C80.2727 14.7386 80.7557 14.7898 81.3011 14.892C81.8523 14.9886 82.3835 15.1903 82.8949 15.4972C83.4119 15.804 83.8409 16.267 84.1818 16.8864C84.5227 17.5057 84.6932 18.3352 84.6932 19.375V28H82.6818V26.2273H82.5795C82.4432 26.5114 82.2159 26.8153 81.8977 27.1392C81.5795 27.4631 81.1563 27.7386 80.6278 27.9659C80.0994 28.1932 79.4545 28.3068 78.6932 28.3068ZM79 26.5C79.7955 26.5 80.4659 26.3438 81.0114 26.0312C81.5625 25.7188 81.9773 25.3153 82.2557 24.821C82.5398 24.3267 82.6818 23.8068 82.6818 23.2614V21.4205C82.5966 21.5227 82.4091 21.6165 82.1193 21.7017C81.8352 21.7812 81.5057 21.8523 81.1307 21.9148C80.7614 21.9716 80.4006 22.0227 80.0483 22.0682C79.7017 22.108 79.4205 22.142 79.2045 22.1705C78.6818 22.2386 78.1932 22.3494 77.7386 22.5028C77.2898 22.6506 76.9261 22.875 76.6477 23.1761C76.375 23.4716 76.2386 23.875 76.2386 24.3864C76.2386 25.0852 76.4972 25.6136 77.0142 25.9716C77.5369 26.3239 78.1989 26.5 79 26.5ZM94.0575 14.9091V16.6136H87.2734V14.9091H94.0575ZM89.2507 11.7727H91.2621V24.25C91.2621 24.8182 91.3445 25.2443 91.5092 25.5284C91.6797 25.8068 91.8956 25.9943 92.157 26.0909C92.424 26.1818 92.7053 26.2273 93.0007 26.2273C93.2223 26.2273 93.4041 26.2159 93.5462 26.1932C93.6882 26.1648 93.8018 26.142 93.8871 26.125L94.2962 27.9318C94.1598 27.983 93.9695 28.0341 93.7251 28.0852C93.4808 28.142 93.1712 28.1705 92.7962 28.1705C92.228 28.1705 91.6712 28.0483 91.1257 27.804C90.5859 27.5597 90.1371 27.1875 89.7791 26.6875C89.4268 26.1875 89.2507 25.5568 89.2507 24.7955V11.7727ZM98.0717 28H95.8558L102.265 10.5455H104.447L110.856 28H108.64L103.424 13.3068H103.288L98.0717 28ZM98.8899 21.1818H107.822V23.0568H98.8899V21.1818ZM113.442 28V14.9091H115.454V28H113.442ZM114.465 12.7273C114.073 12.7273 113.735 12.5938 113.451 12.3267C113.173 12.0597 113.033 11.7386 113.033 11.3636C113.033 10.9886 113.173 10.6676 113.451 10.4006C113.735 10.1335 114.073 10 114.465 10C114.857 10 115.192 10.1335 115.471 10.4006C115.755 10.6676 115.897 10.9886 115.897 11.3636C115.897 11.7386 115.755 12.0597 115.471 12.3267C115.192 12.5938 114.857 12.7273 114.465 12.7273Z" fill="#0F0F0F"/>
<path d="M78.6932 28.3068C77.8636 28.3068 77.1108 28.1506 76.4347 27.8381C75.7585 27.5199 75.2216 27.0625 74.8239 26.4659C74.4261 25.8636 74.2273 25.1364 74.2273 24.2841C74.2273 23.5341 74.375 22.9261 74.6705 22.4602C74.9659 21.9886 75.3608 21.6193 75.8551 21.3523C76.3494 21.0852 76.8949 20.8864 77.4915 20.7557C78.0938 20.6193 78.6989 20.5114 79.3068 20.4318C80.1023 20.3295 80.7472 20.2528 81.2415 20.2017C81.7415 20.1449 82.1051 20.0511 82.3324 19.9205C82.5653 19.7898 82.6818 19.5625 82.6818 19.2386V19.1705C82.6818 18.3295 82.4517 17.6761 81.9915 17.2102C81.5369 16.7443 80.8466 16.5114 79.9205 16.5114C78.9602 16.5114 78.2074 16.7216 77.6619 17.142C77.1165 17.5625 76.733 18.0114 76.5114 18.4886L74.6023 17.8068C74.9432 17.0114 75.3977 16.392 75.9659 15.9489C76.5398 15.5 77.1648 15.1875 77.8409 15.0114C78.5227 14.8295 79.1932 14.7386 79.8523 14.7386C80.2727 14.7386 80.7557 14.7898 81.3011 14.892C81.8523 14.9886 82.3835 15.1903 82.8949 15.4972C83.4119 15.804 83.8409 16.267 84.1818 16.8864C84.5227 17.5057 84.6932 18.3352 84.6932 19.375V28H82.6818V26.2273H82.5795C82.4432 26.5114 82.2159 26.8153 81.8977 27.1392C81.5795 27.4631 81.1563 27.7386 80.6278 27.9659C80.0994 28.1932 79.4545 28.3068 78.6932 28.3068ZM79 26.5C79.7955 26.5 80.4659 26.3438 81.0114 26.0312C81.5625 25.7188 81.9773 25.3153 82.2557 24.821C82.5398 24.3267 82.6818 23.8068 82.6818 23.2614V21.4205C82.5966 21.5227 82.4091 21.6165 82.1193 21.7017C81.8352 21.7812 81.5057 21.8523 81.1307 21.9148C80.7614 21.9716 80.4006 22.0227 80.0483 22.0682C79.7017 22.108 79.4205 22.142 79.2045 22.1705C78.6818 22.2386 78.1932 22.3494 77.7386 22.5028C77.2898 22.6506 76.9261 22.875 76.6477 23.1761C76.375 23.4716 76.2386 23.875 76.2386 24.3864C76.2386 25.0852 76.4972 25.6136 77.0142 25.9716C77.5369 26.3239 78.1989 26.5 79 26.5ZM94.0575 14.9091V16.6136H87.2734V14.9091H94.0575ZM89.2507 11.7727H91.2621V24.25C91.2621 24.8182 91.3445 25.2443 91.5092 25.5284C91.6797 25.8068 91.8956 25.9943 92.157 26.0909C92.424 26.1818 92.7053 26.2273 93.0007 26.2273C93.2223 26.2273 93.4041 26.2159 93.5462 26.1932C93.6882 26.1648 93.8018 26.142 93.8871 26.125L94.2962 27.9318C94.1598 27.983 93.9695 28.0341 93.7251 28.0852C93.4808 28.142 93.1712 28.1705 92.7962 28.1705C92.228 28.1705 91.6712 28.0483 91.1257 27.804C90.5859 27.5597 90.1371 27.1875 89.7791 26.6875C89.4268 26.1875 89.2507 25.5568 89.2507 24.7955V11.7727ZM98.0717 28H95.8558L102.265 10.5455H104.447L110.856 28H108.64L103.424 13.3068H103.288L98.0717 28ZM98.8899 21.1818H107.822V23.0568H98.8899V21.1818ZM113.442 28V14.9091H115.454V28H113.442ZM114.465 12.7273C114.073 12.7273 113.735 12.5938 113.451 12.3267C113.173 12.0597 113.033 11.7386 113.033 11.3636C113.033 10.9886 113.173 10.6676 113.451 10.4006C113.735 10.1335 114.073 10 114.465 10C114.857 10 115.192 10.1335 115.471 10.4006C115.755 10.6676 115.897 10.9886 115.897 11.3636C115.897 11.7386 115.755 12.0597 115.471 12.3267C115.192 12.5938 114.857 12.7273 114.465 12.7273Z" fill="white"/>
</svg>
