<?xml version="1.0" encoding="UTF-8" standalone="no"?> <svg width="64" height="64" viewBox="0 0 64 64" fill="none" xmlns="http://www.w3.org/2000/svg">
<path d="M11.6101 32H53.0701V44.88C53.0701 45.8583 52.8774 46.8271 52.503 47.731C52.1286 48.6349 51.5798 49.4561 50.888 50.1479C50.1962 50.8397 49.375 51.3885 48.4711 51.7629C47.5672 52.1373 46.5984 52.33 45.6201 52.33H19.0501C17.0742 52.33 15.1793 51.5451 13.7822 50.1479C12.385 48.7508 11.6001 46.8559 11.6001 44.88V32H11.6101Z" fill="#eeb150"/>
<path d="M60 30.5H53.5V16C53.4974 14.5421 52.917 13.1447 51.8862 12.1138C50.8553 11.083 49.4579 10.5026 48 10.5H16C14.5421 10.5026 13.1447 11.083 12.1138 12.1138C11.083 13.1447 10.5026 14.5421 10.5 16V30.5H4C3.60218 30.5 3.22064 30.658 2.93934 30.9393C2.65804 31.2206 2.5 31.6022 2.5 32C2.5 32.3978 2.65804 32.7794 2.93934 33.0607C3.22064 33.342 3.60218 33.5 4 33.5H10.5V48C10.5026 49.4579 11.083 50.8553 12.1138 51.8862C13.1447 52.917 14.5421 53.4974 16 53.5H48C49.4579 53.4974 50.8553 52.917 51.8862 51.8862C52.917 50.8553 53.4974 49.4579 53.5 48V33.5H60C60.3978 33.5 60.7794 33.342 61.0607 33.0607C61.342 32.7794 61.5 32.3978 61.5 32C61.5 31.6022 61.342 31.2206 61.0607 30.9393C60.7794 30.658 60.3978 30.5 60 30.5ZM13.5 16C13.5 15.337 13.7634 14.7011 14.2322 14.2322C14.7011 13.7634 15.337 13.5 16 13.5H48C48.663 13.5 49.2989 13.7634 49.7678 14.2322C50.2366 14.7011 50.5 15.337 50.5 16V30.5H13.5V16ZM50.5 48C50.5 48.663 50.2366 49.2989 49.7678 49.7678C49.2989 50.2366 48.663 50.5 48 50.5H16C15.337 50.5 14.7011 50.2366 14.2322 49.7678C13.7634 49.2989 13.5 48.663 13.5 48V33.5H50.5V48Z" fill="#c98821"/>
<path d="M41.0699 24.1401H22.9299C22.5321 24.1401 22.1506 24.2982 21.8693 24.5795C21.588 24.8608 21.4299 25.2423 21.4299 25.6401C21.4299 26.038 21.588 26.4195 21.8693 26.7008C22.1506 26.9821 22.5321 27.1401 22.9299 27.1401H41.0699C41.4678 27.1401 41.8493 26.9821 42.1306 26.7008C42.4119 26.4195 42.5699 26.038 42.5699 25.6401C42.5699 25.2423 42.4119 24.8608 42.1306 24.5795C41.8493 24.2982 41.4678 24.1401 41.0699 24.1401Z" fill="#c98821"/>
<path d="M29.6799 20.79H34.3199C34.7178 20.79 35.0993 20.632 35.3806 20.3507C35.6619 20.0694 35.8199 19.6879 35.8199 19.29C35.8199 18.8922 35.6619 18.5107 35.3806 18.2294C35.0993 17.9481 34.7178 17.79 34.3199 17.79H29.6799C29.2821 17.79 28.9006 17.9481 28.6193 18.2294C28.338 18.5107 28.1799 18.8922 28.1799 19.29C28.1799 19.6879 28.338 20.0694 28.6193 20.3507C28.9006 20.632 29.2821 20.79 29.6799 20.79Z" fill="#c98821"/>
<path d="M4 22.07C4.39782 22.07 4.77936 21.912 5.06066 21.6307C5.34196 21.3494 5.5 20.9678 5.5 20.57V5.5H20.57C20.9678 5.5 21.3494 5.34196 21.6307 5.06066C21.912 4.77936 22.07 4.39782 22.07 4C22.07 3.60218 21.912 3.22064 21.6307 2.93934C21.3494 2.65804 20.9678 2.5 20.57 2.5H4C3.60218 2.5 3.22064 2.65804 2.93934 2.93934C2.65804 3.22064 2.5 3.60218 2.5 4V20.57C2.5 20.9678 2.65804 21.3494 2.93934 21.6307C3.22064 21.912 3.60218 22.07 4 22.07Z" fill="#c98821"/>
<path d="M59.9999 2.5H43.4299C43.0321 2.5 42.6506 2.65804 42.3693 2.93934C42.088 3.22064 41.9299 3.60218 41.9299 4C41.9299 4.39782 42.088 4.77936 42.3693 5.06066C42.6506 5.34196 43.0321 5.5 43.4299 5.5H58.4999V20.57C58.4999 20.9678 58.658 21.3494 58.9393 21.6307C59.2206 21.912 59.6021 22.07 59.9999 22.07C60.3978 22.07 60.7793 21.912 61.0606 21.6307C61.3419 21.3494 61.4999 20.9678 61.4999 20.57V4C61.4999 3.60218 61.3419 3.22064 61.0606 2.93934C60.7793 2.65804 60.3978 2.5 59.9999 2.5Z" fill="#c98821"/>
<path d="M59.9999 41.9302C59.6021 41.9302 59.2206 42.0882 58.9393 42.3695C58.658 42.6508 58.4999 43.0324 58.4999 43.4302V58.5002H43.4299C43.0321 58.5002 42.6506 58.6582 42.3693 58.9395C42.088 59.2208 41.9299 59.6024 41.9299 60.0002C41.9299 60.398 42.088 60.7795 42.3693 61.0608C42.6506 61.3421 43.0321 61.5002 43.4299 61.5002H59.9999C60.3978 61.5002 60.7793 61.3421 61.0606 61.0608C61.3419 60.7795 61.4999 60.398 61.4999 60.0002V43.4302C61.4999 43.0324 61.3419 42.6508 61.0606 42.3695C60.7793 42.0882 60.3978 41.9302 59.9999 41.9302Z" fill="#c98821"/>
<path d="M20.57 58.5002H5.5V43.4302C5.5 43.0324 5.34196 42.6508 5.06066 42.3695C4.77936 42.0882 4.39782 41.9302 4 41.9302C3.60218 41.9302 3.22064 42.0882 2.93934 42.3695C2.65804 42.6508 2.5 43.0324 2.5 43.4302V60.0002C2.5 60.398 2.65804 60.7795 2.93934 61.0608C3.22064 61.3421 3.60218 61.5002 4 61.5002H20.57C20.9678 61.5002 21.3494 61.3421 21.6307 61.0608C21.912 60.7795 22.07 60.398 22.07 60.0002C22.07 59.6024 21.912 59.2208 21.6307 58.9395C21.3494 58.6582 20.9678 58.5002 20.57 58.5002Z" fill="#c98821"/>
</svg>
