<?xml version="1.0" encoding="UTF-8"?>
<!DOCTYPE svg PUBLIC "-//W3C//DTD SVG 1.1//EN" "http://www.w3.org/Graphics/SVG/1.1/DTD/svg11.dtd">
<!-- Creator: CorelDRAW -->
<svg xmlns="http://www.w3.org/2000/svg" xml:space="preserve" width="1.70666in" height="1.70666in" version="1.1" style="shape-rendering:geometricPrecision; text-rendering:geometricPrecision; image-rendering:optimizeQuality; fill-rule:evenodd; clip-rule:evenodd"
viewBox="0 0 1706.66 1706.66"
 xmlns:xlink="http://www.w3.org/1999/xlink"
 xmlns:xodm="http://www.corel.com/coreldraw/odm/2003">
 <defs>
  <style type="text/css">
   <![CDATA[
    .fil0 {fill:#c98821}
   ]]>
  </style>
 </defs>
 <g id="Layer_x0020_1">
  <metadata id="CorelCorpID_0Corel-Layer"/>
  <path class="fil0" d="M853.33 1706.64c-228.04,0 -435.09,-89.3 -588.11,-234.85l187.26 -189.31c18.61,-18.6 -9.65,-46.93 -28.3,-28.3l-49.96 49.96c-114.06,-121.13 -173.43,-275.28 -178.12,-430.8l73.78 0c26.34,0 26.32,-40 0,-40l-73.78 0c4.62,-153.68 62.67,-306.01 174.1,-426.48l56.43 56.43c18.34,18.35 47.16,-9.4 28.28,-28.28l-56.7 -56.7c122.01,-117 277.87,-177.87 435.12,-182.63l0 82.59c0,26.32 40,26.34 40,0l0 -82.58c157.25,4.76 313.1,65.63 435.11,182.62l-56.7 56.7c-18.89,18.89 9.98,46.63 28.3,28.28l56.43 -56.43c111.43,120.47 169.48,272.8 174.11,426.48l-73.78 0c-26.32,0 -26.32,40 0,40l73.78 0c-4.68,155.52 -64.07,309.67 -178.13,430.8l-44.61 -44.62c-18.61,-18.63 -46.93,9.67 -28.3,28.3 14.03,14.03 38.68,42.38 56.8,56.49l125.46 127.18c-153.06,145.74 -360.24,235.16 -588.46,235.16zm-507.41 -374.18c-18.59,18.59 -89.96,86.96 -100.35,102.4l-8.69 8.69c-142.46,-148.76 -231.56,-349.03 -236.64,-570.2l155.84 0c4.71,165.78 67.98,330.17 189.84,459.12zm-345.66 -499.12c10.62,-462.28 388.21,-833.32 853.07,-833.32 464.86,0 842.45,371.02 853.07,833.32l-155.83 0c-4.89,-171.99 -72.78,-342.5 -203.76,-473.48 -272.72,-272.71 -714.24,-272.7 -986.95,0 -130.97,130.97 -198.89,301.49 -203.76,473.47l-155.83 0zm1550.3 40l155.85 0c-5.07,221.02 -94.04,421.16 -236.31,569.88 -31.58,-34.93 -75.15,-76.56 -109.36,-110.77 121.85,-128.95 185.12,-293.34 189.82,-459.11zm-697.23 308.96c-76.17,0 -138.13,-61.97 -138.13,-138.12 0,-39.35 16.5,-76.28 45.53,-102.49l72.93 -392.55c4.01,-21.64 35.31,-21.65 39.34,0l72.94 392.55c29.03,26.21 45.53,63.14 45.53,102.49 -0,76.15 -61.97,138.12 -138.14,138.12zm0 -520.03l-54.57 293.66c-3.37,18.07 -43.57,29.33 -43.57,88.24 0,54.11 44.02,98.11 98.13,98.11 92.36,0 133.13,-116.73 61.65,-174.46 -3.71,-2.98 -6.22,-7.2 -7.1,-11.89l-54.54 -293.66z"/>
 </g>
</svg>
