<svg width="17" height="13" viewBox="0 0 17 13" fill="none" xmlns="http://www.w3.org/2000/svg">
<path d="M6.64742 5.86249C6.29867 5.74624 6.29867 5.25376 6.64742 5.13751L8.69447 4.45586C9.14447 4.30582 9.55333 4.05303 9.88866 3.71753C10.224 3.38202 10.4765 2.97302 10.6263 2.52294L11.308 0.476943C11.4242 0.128192 11.9167 0.128192 12.033 0.476942L12.7146 2.524C12.8646 2.97399 13.1174 3.38286 13.4529 3.71818C13.7885 4.0535 14.1975 4.30607 14.6475 4.45586L16.6935 5.13751C16.7699 5.16257 16.8364 5.21111 16.8835 5.27621C16.9307 5.3413 16.9561 5.41962 16.9561 5.5C16.9561 5.58037 16.9307 5.6587 16.8835 5.72379C16.8364 5.78888 16.7699 5.83742 16.6935 5.86249L14.6465 6.54414C14.1966 6.69407 13.7878 6.9467 13.4525 7.28201C13.1172 7.61733 12.8645 8.02612 12.7146 8.476L12.033 10.5231C12.0079 10.5994 11.9594 10.6659 11.8943 10.7131C11.8292 10.7602 11.7508 10.7856 11.6705 10.7856C11.5901 10.7856 11.5118 10.7602 11.4467 10.7131C11.3816 10.6659 11.333 10.5994 11.308 10.5231L10.6263 8.476C10.4764 8.02612 10.2238 7.61733 9.88846 7.28201C9.55315 6.9467 9.14436 6.69407 8.69447 6.54414L6.64742 5.86249ZM1.2587 9.94498C1.21294 9.92982 1.17311 9.90063 1.14488 9.86155C1.11665 9.82247 1.10146 9.77548 1.10146 9.72727C1.10146 9.67906 1.11665 9.63208 1.14488 9.593C1.17311 9.55392 1.21294 9.52472 1.2587 9.50957L2.48673 9.10058C3.03416 8.91775 3.46323 8.48868 3.64606 7.94125L4.05504 6.71323C4.0702 6.66746 4.09939 6.62763 4.13847 6.59941C4.17755 6.57118 4.22454 6.55599 4.27275 6.55599C4.32096 6.55599 4.36794 6.57118 4.40702 6.59941C4.44611 6.62763 4.4753 6.66746 4.49045 6.71323L4.89944 7.94125C4.98939 8.21124 5.14099 8.45657 5.34222 8.6578C5.54345 8.85903 5.78878 9.01063 6.05877 9.10058L7.28679 9.50957C7.33256 9.52472 7.37239 9.55392 7.40061 9.593C7.42884 9.63208 7.44403 9.67906 7.44403 9.72727C7.44403 9.77548 7.42884 9.82247 7.40061 9.86155C7.37239 9.90063 7.33256 9.92982 7.28679 9.94498L6.05877 10.354C5.78878 10.4439 5.54345 10.5955 5.34222 10.7967C5.14099 10.998 4.98939 11.2433 4.89944 11.5133L4.49045 12.7413C4.4753 12.7871 4.44611 12.8269 4.40702 12.8551C4.36794 12.8834 4.32096 12.8986 4.27275 12.8986C4.22454 12.8986 4.17755 12.8834 4.13847 12.8551C4.09939 12.8269 4.0702 12.7871 4.05504 12.7413L3.64606 11.5133C3.5561 11.2433 3.4045 10.998 3.20328 10.7967C3.00205 10.5955 2.75672 10.4439 2.48673 10.354L1.2587 9.94498ZM0.1501 2.47433C0.120009 2.4639 0.0939154 2.44435 0.0754483 2.4184C0.0569811 2.39245 0.0470576 2.36139 0.0470576 2.32955C0.0470576 2.2977 0.0569811 2.26664 0.0754483 2.24069C0.0939154 2.21474 0.120009 2.19519 0.1501 2.18476L0.968077 1.9121C1.33374 1.79057 1.62013 1.50417 1.74167 1.13851L2.01433 0.320534C2.02476 0.290442 2.04431 0.264349 2.07026 0.245882C2.09621 0.227415 2.12726 0.217491 2.15911 0.217491C2.19096 0.217491 2.22202 0.227415 2.24797 0.245882C2.27391 0.264349 2.29346 0.290442 2.3039 0.320534L2.57655 1.13851C2.6365 1.31871 2.73763 1.48245 2.87192 1.61674C3.0062 1.75103 3.16995 1.85216 3.35015 1.9121L4.16812 2.18476C4.19821 2.19519 4.22431 2.21474 4.24277 2.24069C4.26124 2.26664 4.27117 2.2977 4.27117 2.32955C4.27117 2.36139 4.26124 2.39245 4.24277 2.4184C4.22431 2.44435 4.19821 2.4639 4.16812 2.47433L3.35015 2.74699C3.16995 2.80694 3.0062 2.90806 2.87192 3.04235C2.73763 3.17664 2.6365 3.34038 2.57655 3.52058L2.3039 4.3375C2.29346 4.36759 2.27391 4.39369 2.24797 4.41215C2.22202 4.43062 2.19096 4.44054 2.15911 4.44054C2.12726 4.44054 2.09621 4.43062 2.07026 4.41215C2.04431 4.39369 2.02476 4.36759 2.01433 4.3375L1.74167 3.51952C1.62013 3.15386 1.33374 2.86747 0.968077 2.74593L0.151157 2.47433L0.1501 2.47433Z" fill="white"/>
</svg>
