<svg width="25" height="25" viewBox="0 0 25 25" fill="none" xmlns="http://www.w3.org/2000/svg">
<path fill-rule="evenodd" clip-rule="evenodd" d="M18.9668 1.80065C17.0801 0.657837 14.8669 0 12.5 0C5.59644 0 0 5.59644 0 12.5C0 14.0462 0.280753 15.5269 0.794064 16.8938C1.13223 15.9989 1.57841 15.1863 2.1326 14.4561C3.55434 12.5643 5.71509 11.1592 8.61487 10.2409L13.4291 8.69805C15.3435 8.07357 16.7511 7.29298 17.652 6.35626C18.5529 5.41955 19.0034 4.14305 19.0034 2.52676C19.0034 2.27874 18.9912 2.03671 18.9668 1.80065ZM5.17784 22.6321C5.16063 22.4354 5.15203 22.2355 5.15203 22.0324C5.15203 20.5631 5.54617 19.3325 6.33446 18.3407C7.12275 17.3305 8.33333 16.5775 9.96622 16.0815L15.3716 14.4285C18.3418 13.5102 20.5236 12.0867 21.9172 10.1582C22.6534 9.11927 23.1931 7.94173 23.5364 6.62558C24.4705 8.37685 25 10.3766 25 12.5C25 16.273 23.3284 19.6555 20.6854 21.9474L20.2703 21.812C20.2313 22.0093 20.1892 22.2023 20.1442 22.391C18.0309 24.0266 15.3791 25 12.5 25C9.76529 25 7.2357 24.1218 5.17784 22.6321Z" fill="#29A173"/>
<path fill-rule="evenodd" clip-rule="evenodd" d="M18.9668 1.80065C17.0801 0.657837 14.8669 0 12.5 0C5.59644 0 0 5.59644 0 12.5C0 14.0462 0.280753 15.5269 0.794064 16.8938C1.13223 15.9989 1.57841 15.1863 2.1326 14.4561C3.55434 12.5643 5.71509 11.1592 8.61487 10.2409L13.4291 8.69805C15.3435 8.07357 16.7511 7.29298 17.652 6.35626C18.5529 5.41955 19.0034 4.14305 19.0034 2.52676C19.0034 2.27874 18.9912 2.03671 18.9668 1.80065ZM5.17784 22.6321C5.16063 22.4354 5.15203 22.2355 5.15203 22.0324C5.15203 20.5631 5.54617 19.3325 6.33446 18.3407C7.12275 17.3305 8.33333 16.5775 9.96622 16.0815L15.3716 14.4285C18.3418 13.5102 20.5236 12.0867 21.9172 10.1582C22.6534 9.11927 23.1931 7.94173 23.5364 6.62558C24.4705 8.37685 25 10.3766 25 12.5C25 16.273 23.3284 19.6555 20.6854 21.9474L20.2703 21.812C20.2313 22.0093 20.1892 22.2023 20.1442 22.391C18.0309 24.0266 15.3791 25 12.5 25C9.76529 25 7.2357 24.1218 5.17784 22.6321Z" fill="black" fill-opacity="0.2"/>
<path fill-rule="evenodd" clip-rule="evenodd" d="M18.9668 1.80065C17.0801 0.657837 14.8669 0 12.5 0C5.59644 0 0 5.59644 0 12.5C0 14.0462 0.280753 15.5269 0.794064 16.8938C1.13223 15.9989 1.57841 15.1863 2.1326 14.4561C3.55434 12.5643 5.71509 11.1592 8.61487 10.2409L13.4291 8.69805C15.3435 8.07357 16.7511 7.29298 17.652 6.35626C18.5529 5.41955 19.0034 4.14305 19.0034 2.52676C19.0034 2.27874 18.9912 2.03671 18.9668 1.80065ZM5.17784 22.6321C5.16063 22.4354 5.15203 22.2355 5.15203 22.0324C5.15203 20.5631 5.54617 19.3325 6.33446 18.3407C7.12275 17.3305 8.33333 16.5775 9.96622 16.0815L15.3716 14.4285C18.3418 13.5102 20.5236 12.0867 21.9172 10.1582C22.6534 9.11927 23.1931 7.94173 23.5364 6.62558C24.4705 8.37685 25 10.3766 25 12.5C25 16.273 23.3284 19.6555 20.6854 21.9474L20.2703 21.812C20.2313 22.0093 20.1892 22.2023 20.1442 22.391C18.0309 24.0266 15.3791 25 12.5 25C9.76529 25 7.2357 24.1218 5.17784 22.6321Z" fill="black" fill-opacity="0.2"/>
</svg>
